<svg width="362" height="476" viewBox="0 0 362 476" fill="none" xmlns="http://www.w3.org/2000/svg">
<path d="M443.72 510.243C499.22 174.563 123.22 289.176 32.7198 198.54C-57.7802 107.905 79.2178 18.3487 92.2188 5.99685" stroke="url(#paint0_linear_1226_52422)" stroke-dasharray="8 6"/>
<path d="M38.5001 548C61.0002 409.223 334.775 562.533 356.5 416.651C370.501 322.641 95.5002 253.735 108.5 130.217C118.78 32.5377 344.948 -28.244 343.198 -119" stroke="url(#paint1_linear_1226_52422)" stroke-dasharray="8 6"/>
<path fill-rule="evenodd" clip-rule="evenodd" d="M2.08031 119.772L1.53643 121.642C1.27743 122.393 1.40716 123.597 2.00807 123.805C2.02364 123.81 2.03927 123.815 2.05495 123.818C2.0663 123.821 2.07792 123.824 2.08982 123.827C2.71207 123.958 3.44281 122.992 3.607 122.215L4.10297 120.332L4.15067 120.2L9.74011 114.548C10.1547 114.129 10.3971 113.57 10.4194 112.98L10.4361 112.54C10.4448 112.308 10.1959 112.157 9.99484 112.272L5.83685 114.641L6.48703 112.084L7.70612 111.073C7.8107 110.987 7.88208 110.866 7.90821 110.733L8.20761 109.205C8.25507 108.963 8.00165 108.773 7.78236 108.886L5.91881 109.848L4.81558 108.063C4.68581 107.853 4.37061 107.886 4.28667 108.118L3.75713 109.582C3.71091 109.71 3.71028 109.85 3.75533 109.978L4.28054 111.472L3.52245 113.999L1.17626 109.828C1.06282 109.626 0.771597 109.628 0.660077 109.831L0.44775 110.217C0.163512 110.734 0.0833965 111.338 0.223188 111.911L2.10762 119.633L2.08031 119.772Z" fill="white"/>
<defs>
<linearGradient id="paint0_linear_1226_52422" x1="368.22" y1="186.189" x2="229.123" y2="382.437" gradientUnits="userSpaceOnUse">
<stop stop-color="white"/>
<stop offset="1" stop-color="white" stop-opacity="0"/>
</linearGradient>
<linearGradient id="paint1_linear_1226_52422" x1="502.07" y1="456.554" x2="-41.2582" y2="202.854" gradientUnits="userSpaceOnUse">
<stop stop-color="white"/>
<stop offset="1" stop-color="white" stop-opacity="0"/>
</linearGradient>
</defs>
</svg>
