<svg width="374" height="476" viewBox="0 0 374 476" fill="none" xmlns="http://www.w3.org/2000/svg">
<path d="M-66.0008 -45.0004C-121.501 290.679 192.499 183.146 269.499 229.647C346.499 276.148 -11.5 282.152 0.5 464.283" stroke="url(#paint0_linear_1226_52429)" stroke-dasharray="8 6"/>
<path d="M-4.5 -25.5544C5.53854 209.098 121.851 146.547 244 124.121C366.149 101.695 414.673 328.188 393.5 445.474C354.453 661.779 156.568 435.228 141.049 632" stroke="url(#paint1_linear_1226_52429)" stroke-dasharray="8 6"/>
<path fill-rule="evenodd" clip-rule="evenodd" d="M328.585 152.697L327.106 150.968C326.534 150.229 325.265 149.579 324.672 150.037C324.658 150.048 324.645 150.059 324.633 150.071C324.621 150.08 324.61 150.091 324.598 150.102C324.068 150.63 324.547 151.973 325.207 152.636L326.729 154.326L326.84 154.474L328.799 163.626C328.944 164.305 329.339 164.904 329.905 165.307L330.328 165.607C330.551 165.765 330.86 165.618 330.877 165.346L331.227 159.722L333.325 162.012L333.534 163.865C333.552 164.024 333.624 164.172 333.739 164.283L335.05 165.564C335.258 165.767 335.609 165.64 335.639 165.351L335.894 162.894L338.365 162.959C338.655 162.966 338.826 162.635 338.652 162.402L337.552 160.936C337.456 160.808 337.318 160.717 337.163 160.679L335.353 160.232L333.353 157.855L338.975 158.236C339.247 158.254 339.434 157.966 339.306 157.726L339.062 157.267C338.737 156.654 338.193 156.185 337.539 155.953L328.717 152.826L328.585 152.697Z" fill="white"/>
<defs>
<linearGradient id="paint0_linear_1226_52429" x1="64.999" y1="388.768" x2="159.468" y2="175.892" gradientUnits="userSpaceOnUse">
<stop stop-color="white"/>
<stop offset="1" stop-color="white" stop-opacity="0"/>
</linearGradient>
<linearGradient id="paint1_linear_1226_52429" x1="5" y1="167.716" x2="389.804" y2="165.866" gradientUnits="userSpaceOnUse">
<stop stop-color="white" stop-opacity="0"/>
<stop offset="0.759045" stop-color="#F1F8FF"/>
<stop offset="0.963542" stop-color="white" stop-opacity="0.38"/>
</linearGradient>
</defs>
</svg>
