<svg width="26" height="26" viewBox="0 0 26 26" fill="none" xmlns="http://www.w3.org/2000/svg">
<g clip-path="url(#clip0_10_1035)">
<path d="M26 13C26 20.1793 20.1802 26 12.9994 26C5.81867 26 0 20.1793 0 13C0 5.82071 5.82096 0 13.0006 0C20.1802 0 26.0011 5.81956 26.0011 13H26Z" fill="white"/>
<path d="M24.9807 13.0001C24.9807 19.6164 19.6161 24.9808 12.9994 24.9808C6.38278 24.9808 1.01929 19.6164 1.01929 13.0001C1.01929 6.38369 6.38278 1.01929 13.0006 1.01929C19.6184 1.01929 24.9819 6.38255 24.9819 13.0001H24.9807Z" fill="#E30613"/>
<path fill-rule="evenodd" clip-rule="evenodd" d="M25.5333 12.9576C25.5333 12.9576 24.3982 12.7959 24.2641 12.7959C24.0875 12.7959 23.4512 12.7696 23.2402 12.7627C23.0293 12.7547 21.9848 12.6744 21.4425 12.6813C20.9002 12.6893 19.7834 12.8154 19.7834 12.8154C19.7834 12.8154 19.7685 13.7372 19.7318 13.994C19.6963 14.2508 19.6596 14.5294 19.5312 14.6074C19.4016 14.6842 18.9465 14.792 18.8972 14.6223C18.81 14.3196 18.9442 13.9791 18.9797 13.7727C19.0153 13.5664 19.1333 13.031 18.7378 12.2743C18.3411 11.5176 16.8322 10.0971 16.1845 9.5147C15.5367 8.93343 14.6917 8.32006 14.491 7.70211C14.2892 7.08415 14.2491 6.78148 14.1826 6.56479C14.115 6.34811 14.0634 6.23002 13.9762 6.17843C13.8891 6.12684 13.7859 6.12684 13.7859 6.12684C13.7859 6.12684 13.763 5.89181 13.8685 5.46302C13.9739 5.02392 14.1929 4.94366 14.2078 4.80952C14.2204 4.6857 13.9648 4.55042 13.5898 4.58825C13.1209 4.63526 12.8274 4.83016 12.5557 5.36557C12.3459 5.80811 12.0592 6.70811 12.112 7.41319C12.1945 8.50579 12.8606 9.08592 13.0498 9.69241C13.1863 10.1292 13.4763 10.8733 13.3984 11.8845C13.3135 12.9794 13.5337 14.127 14.2411 14.9869C14.4738 15.2689 14.7777 15.5338 15.0952 15.7126C15.5103 15.9453 15.6135 16.1609 15.4495 16.3076C15.2856 16.4544 14.9393 16.5071 14.6022 16.256C14.2663 16.005 13.8685 15.5819 13.7997 15.5819C13.7309 15.5819 13.5921 15.763 13.411 16.0141C13.2298 16.2641 12.9111 16.5071 12.9615 16.6023C13.0441 16.6894 13.3342 17.0391 13.333 17.5596C13.333 18.1007 13.0556 18.4837 12.9065 18.5972C13.137 18.8127 13.403 19.5717 13.364 19.8996C13.2562 20.7801 12.5282 21.0839 12.5282 21.0839C12.5282 21.0839 13.4557 21.1687 14.0416 21.1768C14.6286 21.1848 16.1569 20.9956 16.8655 20.8053C17.5729 20.615 18.0911 20.6333 18.1943 19.6657C18.2975 18.6981 18.2287 18.1088 18.6518 18.1294C19.1872 18.1558 19.0428 18.6556 19.0324 19.0007C19.0244 19.2851 18.9717 19.778 18.9717 19.778C18.9717 19.778 20.993 19.7608 21.8564 19.778C22.0834 19.7826 23.9706 19.6577 23.9706 19.6577L25.5299 12.9553L25.5333 12.9576ZM24.6998 16.5954C24.6803 16.8213 24.5817 16.9336 24.3501 16.9336C24.1185 16.9336 20.3968 16.9565 20.14 16.913C20.0597 16.8992 19.5862 16.835 19.6699 16.3799C19.7318 16.0485 20.2157 16.1987 20.453 16.2239C21.4688 16.3317 23.3709 16.1701 24.3937 16.1746C24.6253 16.1746 24.717 16.3982 24.6998 16.5954ZM11.8517 13.3302C11.8781 12.9679 11.7657 12.6137 11.627 12.5884C11.4882 12.5621 11.2303 12.4761 11.2039 12.6916C11.1775 12.9072 11.2452 13.7808 10.9884 13.9608C10.4701 14.3231 9.93469 14.072 9.39925 14.0296C8.86382 13.9871 7.0179 13.986 6.65559 13.8129C6.29214 13.6398 6.21418 13.0115 6.33456 12.5793C6.4561 12.147 6.75993 11.701 6.94108 11.6059C7.12223 11.5107 8.32151 11.0762 8.61502 10.973C8.90854 10.8698 9.37518 10.8446 9.78908 10.6623C10.203 10.48 10.555 10.4456 10.7109 10.4376C10.8668 10.4296 11.4034 10.5328 11.6969 10.6279C11.9904 10.7231 12.5259 10.7483 12.5603 10.8263C12.5946 10.9042 12.6955 11.6644 12.6818 11.7332C12.6474 11.8879 12.363 11.4568 12.1991 11.4133C12.0351 11.3697 11.6465 11.3273 11.4217 11.4213C11.197 11.5165 10.7396 11.5589 10.2993 11.4821C9.85901 11.4041 9.37632 11.2665 8.92688 11.3697C8.47744 11.4729 7.76085 11.5165 7.80328 12.0175C7.83538 12.3889 8.41667 12.217 8.55426 12.1814C8.69299 12.147 9.27887 12.0347 9.55633 12.0691C9.83264 12.1035 10.602 12.3293 10.7831 12.3293C10.9643 12.3293 11.1179 12.3064 11.3208 12.2238C11.4527 12.1711 12.0558 12.139 12.2289 12.2686C12.402 12.397 12.4995 12.6091 12.4995 12.9037C12.4995 13.1605 12.3275 13.6008 12.0592 13.712C11.8001 13.8209 11.8402 13.4976 11.8517 13.3302ZM12.6783 15.4764C12.5316 15.7573 12.4582 15.8066 12.2312 15.9465C11.9778 16.1024 11.8173 16.1357 11.8517 15.8857C11.8861 15.6346 12.0776 15.3411 11.9985 15.2116C11.9205 15.0832 11.627 15.0132 11.4023 15.16C11.1775 15.3067 11.1431 15.2976 11.1179 15.418C11.0915 15.5395 11.0755 16.0749 10.9964 16.2125C10.9184 16.3512 10.798 16.5667 10.1502 16.5839C9.50244 16.6011 8.35132 16.3592 7.82735 16.4108C7.36874 16.4555 6.99267 16.4395 6.84248 16.3329C6.69687 16.2285 6.61661 15.7206 6.66247 15.3916C6.70145 15.1096 7.06835 14.7347 7.48225 14.7094C7.89615 14.6842 8.57719 14.7576 9.12179 14.8183C9.66525 14.8791 10.3922 14.9513 10.7292 14.9513C11.0663 14.9513 11.5238 14.8986 11.7393 14.7954C11.9549 14.6922 12.0764 14.5799 12.1796 14.5879C12.2828 14.5971 12.4834 14.6211 12.5763 14.7771C12.6955 14.9766 12.7907 15.2574 12.6783 15.473V15.4764ZM12.05 17.6467C11.9652 17.5069 11.7967 17.4392 11.6705 17.336L11.2131 17.5C11.2131 17.5 11.4286 17.7339 11.377 17.9494C11.3254 18.1649 11.1901 18.4688 10.7556 18.494C10.4541 18.51 9.2181 18.5719 8.8042 18.4676C8.38916 18.3633 8.07042 18.1489 7.87207 17.9849C7.67257 17.821 7.56594 17.7556 7.58429 17.5596C7.60149 17.3888 7.68174 17.234 7.81933 17.2076C7.95806 17.1813 8.14724 17.2764 9.1837 17.3463C10.2202 17.4151 10.7476 17.3979 11.4378 17.1308C12.128 16.8625 12.3436 16.733 12.3436 16.733C12.3436 16.733 12.6485 17.1446 12.5946 17.4851C12.5167 17.9689 12.3424 18.0182 12.136 18.1305C12.1108 17.9804 12.1234 17.8038 12.0512 17.649L12.05 17.6467ZM11.283 19.6714C11.3186 19.7941 11.4149 19.8308 11.4894 19.9351C11.5169 20.1529 11.4057 20.3192 11.2314 20.4625C10.5676 20.5347 9.92781 20.5485 9.27084 20.5141C9.11491 20.5061 8.6242 20.3077 8.53133 20.2298C8.43158 20.1472 8.32495 19.997 8.33641 19.848C8.34673 19.7024 8.48317 19.3344 8.55426 19.2266C8.55426 19.2266 8.99797 19.3114 9.34881 19.3126L11.3094 19.3217C11.2956 19.4226 11.2555 19.574 11.2842 19.6714H11.283ZM12.2644 19.8411C12.2037 19.4742 11.8196 19.2082 11.8437 19.2014L12.3619 19.0466C12.3619 19.0466 12.5958 19.5659 12.5648 19.7287C12.4903 20.1208 12.3608 20.1942 12.2404 20.3249C12.2484 20.1644 12.2885 19.9867 12.2644 19.8422V19.8411Z" fill="white"/>
<path d="M4.73407 19.2245L4.25597 18.5297L3.54168 19.0216L3.21033 18.54L5.06198 17.2651L5.39333 17.7467L4.62974 18.2729L5.10784 18.9677L5.87144 18.4414L6.20279 18.923L4.35113 20.1978L4.01978 19.7163L4.73407 19.2245Z" fill="white"/>
<path d="M4.0554 15.7356L4.33401 16.5221L4.74676 16.5186L4.95429 17.1056L2.55 17.0483L2.33789 16.4464L4.17235 14.8906L4.37987 15.4776L4.05655 15.7344L4.0554 15.7356ZM3.68851 16.0302L3.07053 16.5267L3.86393 16.5244L3.68851 16.0291V16.0302Z" fill="white"/>
<path d="M4.11496 14.1053L4.17344 14.6866L1.93654 14.9125L1.84253 13.9873C1.8173 13.7362 1.86317 13.5367 1.98011 13.3911C2.09706 13.2443 2.27477 13.1595 2.51211 13.1354C2.74944 13.1113 2.93976 13.1595 3.08423 13.2799C3.22869 13.4003 3.31353 13.586 3.33876 13.8371L3.37315 14.181L4.11496 14.1065V14.1053ZM2.90537 14.228L2.88588 14.0354C2.86409 13.8222 2.7609 13.7247 2.57516 13.7431C2.38943 13.7614 2.30688 13.8783 2.32866 14.0916L2.34815 14.2842L2.90537 14.228Z" fill="white"/>
<path d="M2.8561 12.6471C2.691 12.6207 2.54195 12.5668 2.4101 12.4831C2.2771 12.3994 2.16588 12.2963 2.0776 12.1713C1.98817 12.0463 1.92626 11.9042 1.88957 11.7448C1.85288 11.5854 1.84944 11.4146 1.8781 11.2346C1.90562 11.0558 1.9618 10.8953 2.0455 10.7542C2.12919 10.6121 2.23238 10.4951 2.35621 10.4034C2.47889 10.3117 2.61647 10.2452 2.76896 10.2074C2.92145 10.1684 3.07967 10.1626 3.24477 10.189C3.40987 10.2154 3.55892 10.2693 3.69078 10.353C3.82377 10.4367 3.93384 10.541 4.02327 10.666C4.1127 10.7909 4.17461 10.9342 4.2113 11.0959C4.24799 11.2575 4.25143 11.4261 4.22392 11.6049C4.19525 11.7861 4.13907 11.9466 4.05652 12.0876C3.97282 12.2286 3.86964 12.3444 3.74696 12.4361C3.62428 12.5278 3.48669 12.5921 3.3342 12.631C3.18286 12.67 3.02349 12.6757 2.85839 12.6494L2.8561 12.6471ZM2.95126 12.0429C3.03954 12.0566 3.12324 12.0532 3.2035 12.0314C3.28376 12.0096 3.35484 11.9752 3.41905 11.9271C3.48325 11.8789 3.53599 11.8193 3.57842 11.7482C3.62084 11.6772 3.64835 11.6003 3.66211 11.5155C3.67587 11.4307 3.67243 11.3481 3.65409 11.2679C3.63574 11.1876 3.60364 11.1142 3.55778 11.0477C3.51192 10.9812 3.45459 10.9251 3.38465 10.8803C3.31471 10.8356 3.23675 10.8058 3.14846 10.7921C3.06018 10.7783 2.97648 10.7818 2.89623 10.8035C2.81597 10.8253 2.74488 10.8609 2.68068 10.9102C2.61647 10.9595 2.56373 11.0191 2.52131 11.0902C2.47889 11.1612 2.45137 11.2381 2.43761 11.3229C2.42385 11.4077 2.42729 11.4903 2.44564 11.5705C2.46398 11.6508 2.49609 11.7242 2.54195 11.7895C2.58781 11.8549 2.64514 11.911 2.71507 11.9558C2.78501 12.0005 2.86298 12.0303 2.95126 12.044V12.0429Z" fill="white"/>
<path d="M4.02213 9.87134C4.05423 9.80255 4.05537 9.74867 4.02442 9.70969C3.99346 9.66956 3.93957 9.63173 3.86276 9.59504L2.51672 8.9553L3.30783 7.29175L4.8912 8.04384L5.01273 7.78818L5.83939 8.18142L5.58944 8.70651L5.20994 8.52651L4.62979 9.74637L5.00929 9.92637L4.75935 10.4515L3.9327 10.0582L4.02098 9.87249L4.02213 9.87134ZM3.50389 8.03123L3.21496 8.64002L4.11958 9.06995C4.17118 9.09517 4.21474 9.11695 4.24914 9.13644C4.28354 9.15593 4.31449 9.17772 4.34086 9.20179L4.64011 8.57123L3.50389 8.03123Z" fill="white"/>
<path d="M4.97829 6.46169L5.53551 5.82883L4.88427 5.25558L5.27066 4.81763L6.95721 6.30347L6.57083 6.74143L5.87488 6.12806L5.31766 6.76092L6.01361 7.37429L5.62723 7.81225L3.94067 6.3264L4.32706 5.88844L4.97829 6.46169Z" fill="white"/>
<path d="M8.19775 4.95171L7.50295 5.41374L7.60728 5.81272L7.08905 6.15781L6.55591 3.8121L7.08675 3.45898L9.04389 4.85655L8.52451 5.20164L8.1966 4.95056L8.19775 4.95171ZM7.82283 4.66738L7.18994 4.1893L7.386 4.95744L7.82283 4.66738Z" fill="white"/>
<path d="M9.49684 3.73311C9.33289 3.75031 9.19416 3.72164 9.0818 3.64712C8.96944 3.57375 8.88574 3.45566 8.82956 3.294C8.79746 3.20228 8.7837 3.11057 8.78714 3.01999C8.79058 2.92942 8.81236 2.84458 8.85134 2.76433C8.89032 2.68522 8.94765 2.61299 9.02332 2.54879C9.09899 2.48458 9.19301 2.43414 9.30652 2.39516L10.1664 2.09937L10.8968 4.22495L10.3464 4.41412L10.0655 3.59668L9.81902 4.59527L9.1288 4.83259L9.49799 3.73196L9.49684 3.73311ZM9.76169 2.71503L9.65506 2.75172C9.54844 2.7884 9.47276 2.84 9.4292 2.90534C9.38563 2.97069 9.3776 3.04636 9.40741 3.13006C9.43608 3.2149 9.48882 3.26878 9.56334 3.294C9.63787 3.31923 9.72844 3.31235 9.83622 3.27566L9.94284 3.23897L9.76284 2.71503H9.76169Z" fill="white"/>
<path d="M12.2141 3.93713L12.7369 1.71753L13.3136 1.75422L13.6874 2.97866L14.2091 1.81039L14.7858 1.84708L15.0243 4.11483L14.4441 4.07814L14.3329 2.77459L13.7218 4.03228L13.4902 4.01738L13.0694 2.69434L12.7943 3.97381L12.2141 3.93713Z" fill="white"/>
<path d="M16.7739 4.37845L15.9943 4.08036L15.7294 4.39794L15.147 4.17552L16.7475 2.38013L17.3437 2.60713L17.3414 5.01246L16.759 4.79004L16.7728 4.3773L16.7739 4.37845ZM16.7877 3.90839L16.8095 3.11617L16.2981 3.72151L16.7888 3.90839H16.7877Z" fill="white"/>
<path d="M17.9801 5.48149L17.4985 5.15016L18.7735 3.29858L19.5394 3.82597C19.7469 3.96928 19.8696 4.13323 19.9051 4.31666C19.9407 4.50125 19.8914 4.69156 19.7561 4.88761C19.6208 5.08366 19.4603 5.19831 19.2757 5.23041C19.0911 5.26251 18.8939 5.20634 18.6863 5.06303L18.402 4.86698L17.9789 5.48035L17.9801 5.48149ZM18.6703 4.47946L18.8297 4.58953C19.0062 4.71105 19.1484 4.695 19.2539 4.54137C19.3594 4.38775 19.325 4.25017 19.1473 4.12749L18.9879 4.01743L18.6703 4.47946Z" fill="white"/>
<path d="M20.4519 5.81746L21.618 5.7246L22.1018 6.26001L20.7145 6.31274L20.4909 7.82954L19.983 7.26777L20.1963 6.0502L19.4728 6.7037L19.0807 6.27032L20.7478 4.7627L21.1399 5.19607L20.4519 5.81746Z" fill="white"/>
<path d="M21.6088 9.14443L21.2327 8.39922L20.8234 8.45539L20.5425 7.89935L22.9342 7.64941L23.2219 8.21922L21.6019 9.99627L21.321 9.44022L21.6088 9.14443ZM21.9355 8.80622L22.4847 8.23412L21.6982 8.33731L21.9344 8.80507L21.9355 8.80622Z" fill="white"/>
</g>
<defs>
<clipPath id="clip0_10_1035">
<rect width="26" height="26" fill="white"/>
</clipPath>
</defs>
</svg>
