<svg width="114" height="29" viewBox="0 0 114 29" fill="none" xmlns="http://www.w3.org/2000/svg">
<path d="M54.8715 15.6164C53.9441 15.0668 52.8767 14.8305 51.8357 14.8279H51.8013C50.763 14.8305 49.6929 15.0668 48.7656 15.6164C48.253 15.9191 47.9174 16.312 47.7299 16.7474V23.4618C47.9174 23.8945 48.2504 24.2901 48.7656 24.5928C51.1461 26.0052 54.4646 25.376 55.7883 23.9184C55.7883 23.9184 56.1159 23.5016 55.6694 22.9786C54.9111 22.0839 54.6416 22.3069 54.6416 22.3069C52.7948 24.1043 50.2346 23.2255 50.1236 22.8644C50.1025 22.7901 50.0628 22.6281 50.0628 22.4874V21.2369C50.6309 21.3989 51.2174 21.4759 51.7987 21.4759C51.804 21.4759 51.833 21.4759 51.833 21.4759C52.8714 21.4732 53.9414 21.2396 54.8688 20.6874C55.3814 20.382 55.7169 19.9891 55.9045 19.5563V16.7474C55.7196 16.3147 55.3867 15.9191 54.8715 15.6164ZM53.5715 18.5793C53.5715 18.72 53.5319 18.882 53.5081 18.9563C53.4526 19.1422 52.7446 19.4661 51.8172 19.49C50.8898 19.4661 50.1817 19.1448 50.1262 18.9563C50.1051 18.882 50.0655 18.72 50.0655 18.5793V17.7244C50.0655 17.5837 50.1051 17.4218 50.1262 17.3474C50.1817 17.1616 50.8898 16.8377 51.8172 16.8138C52.7419 16.8377 53.45 17.1589 53.5081 17.3474C53.5293 17.4191 53.5715 17.5811 53.5715 17.7244V18.5793Z" fill="white"/>
<path d="M65.5639 16.2775C65.5639 16.2775 65.2363 16.6917 65.6828 17.2174C66.4411 18.1121 66.7106 17.8891 66.7106 17.8891C67.5824 17.0395 68.6155 16.7873 69.4715 16.7979C70.428 16.8085 71.2867 17.1059 71.2867 17.4776V18.959C69.1941 18.3935 67.4107 18.9564 66.4807 19.5086C65.9681 19.8139 65.6352 20.2068 65.4476 20.6396V23.4485C65.6352 23.8813 65.9681 24.2769 66.4807 24.5795C68.2324 25.6176 70.7952 25.6415 72.5866 24.5795C73.0991 24.2769 73.4347 23.8813 73.6196 23.4485V16.7315C72.251 14.0898 67.1016 14.4509 65.5639 16.2775ZM71.2893 22.4715C71.2893 22.6149 71.2497 22.7742 71.2285 22.8485C71.1731 23.0344 70.465 23.3583 69.5376 23.3822C68.6129 23.3583 67.9021 23.037 67.8467 22.8485C67.8255 22.7742 67.7859 22.6149 67.7859 22.4715V21.6166C67.7859 21.4759 67.8255 21.314 67.8467 21.2396C67.9021 21.0538 68.6129 20.7299 69.5376 20.7086C70.465 20.7325 71.1731 21.0538 71.2285 21.2396C71.2523 21.314 71.2893 21.4759 71.2893 21.6166V22.4715Z" fill="white"/>
<path d="M64.7026 15.2129C64.6683 15.1306 64.626 15.0748 64.5758 15.0403C64.5256 15.0058 64.4675 14.9899 64.4041 14.9899H57.0115C56.948 14.9899 56.8926 15.0058 56.8397 15.0403C56.7895 15.0748 56.7472 15.1306 56.7103 15.2129C56.6759 15.2952 56.6495 15.4014 56.631 15.5368C56.6125 15.6695 56.6019 15.8421 56.6019 16.0518C56.6019 16.2589 56.6099 16.4315 56.631 16.5643C56.6495 16.6997 56.6759 16.8059 56.7103 16.8882C56.7472 16.9705 56.7895 17.0262 56.8397 17.0607C56.8899 17.0952 56.948 17.1112 57.0115 17.1112H59.5109V24.8238C59.5109 24.8875 59.5294 24.9433 59.5664 24.9911C59.606 25.0388 59.6694 25.0787 59.7619 25.1079C59.8544 25.1397 59.9759 25.1636 60.1291 25.1796C60.2824 25.1955 60.4753 25.2035 60.7104 25.2035C60.9429 25.2035 61.1384 25.1955 61.289 25.1796C61.4423 25.1636 61.5638 25.1397 61.6563 25.1079C61.7488 25.076 61.8122 25.0362 61.8518 24.9911C61.8888 24.9433 61.9099 24.8875 61.9099 24.8238V17.1112H64.4067C64.4701 17.1112 64.5282 17.0952 64.5784 17.0607C64.6286 17.0289 64.6709 16.9705 64.7053 16.8882C64.7396 16.8059 64.7687 16.6997 64.7845 16.5643C64.8057 16.4315 64.8136 16.2589 64.8136 16.0518C64.8136 15.8448 64.8057 15.6722 64.7845 15.5394C64.7634 15.4014 64.737 15.2925 64.7026 15.2129Z" fill="white"/>
<path d="M46.5883 15.5368C46.5698 15.4014 46.5434 15.2925 46.5064 15.2129C46.472 15.1306 46.4271 15.0748 46.3796 15.0403C46.3294 15.0058 46.2712 14.9899 46.2078 14.9899H41.6264C39.9355 14.9899 39.917 15.489 39.8007 16.8536C39.5947 19.2776 39.3621 21.9405 37.5761 23.483C37.5259 23.5255 37.4942 23.5786 37.4783 23.6397C37.4651 23.7008 37.473 23.7777 37.5074 23.8733C37.5391 23.9663 37.5972 24.0778 37.6791 24.2079C37.761 24.3379 37.8773 24.4946 38.0252 24.6778C38.1732 24.861 38.2287 24.8981 38.337 25.0043C38.448 25.1132 38.5484 25.1902 38.6356 25.2353C38.7254 25.2831 38.8047 25.3017 38.8707 25.2937C38.9421 25.2858 39.0028 25.2486 39.0662 25.2035C41.3147 23.5388 41.7559 20.5281 42.1126 18.0324C42.1575 17.7271 42.1231 17.1085 42.7018 17.1085H44.2157V24.8238C44.2157 24.8875 44.2342 24.9433 44.2738 24.9911C44.3108 25.0388 44.3768 25.0787 44.4693 25.1105C44.5618 25.1424 44.6833 25.1663 44.8366 25.1822C44.9872 25.1981 45.1827 25.2061 45.4178 25.2061C45.653 25.2061 45.8459 25.1981 45.9965 25.1822C46.1497 25.1663 46.2739 25.1424 46.3637 25.1105C46.4562 25.0787 46.5196 25.0388 46.5592 24.9911C46.5962 24.9433 46.6173 24.8875 46.6173 24.8238V16.0041C46.6147 15.8182 46.6068 15.6616 46.5883 15.5368Z" fill="white"/>
<path d="M82.299 15.2129C82.2621 15.1306 82.2198 15.0748 82.1696 15.0403C82.1194 15.0058 82.0612 14.9899 81.9978 14.9899H74.6052C74.5418 14.9899 74.4837 15.0058 74.4335 15.0403C74.3833 15.0748 74.341 15.1306 74.3067 15.2129C74.2723 15.2952 74.2459 15.4014 74.2274 15.5368C74.2089 15.6695 74.1984 15.8421 74.1984 16.0518C74.1984 16.2589 74.2063 16.4315 74.2274 16.5643C74.2459 16.6997 74.2723 16.8059 74.3067 16.8882C74.3437 16.9705 74.3859 17.0262 74.4335 17.0607C74.4837 17.0952 74.5418 17.1112 74.6052 17.1112H77.102V24.8238C77.102 24.8875 77.1205 24.9433 77.1575 24.9911C77.1945 25.0388 77.2606 25.0787 77.353 25.1079C77.4429 25.1397 77.567 25.1636 77.7203 25.1796C77.8735 25.1955 78.0664 25.2035 78.3015 25.2035C78.5367 25.2035 78.7296 25.1955 78.8828 25.1796C79.036 25.1636 79.1576 25.1397 79.2501 25.1079C79.3425 25.076 79.4086 25.0362 79.4456 24.9911C79.4826 24.9433 79.5037 24.8875 79.5037 24.8238V17.1112H82.0005C82.0639 17.1112 82.122 17.0952 82.1722 17.0607C82.2224 17.0289 82.2647 16.9705 82.3017 16.8882C82.336 16.8059 82.3624 16.6997 82.3809 16.5643C82.3994 16.4315 82.41 16.2589 82.41 16.0518C82.41 15.8448 82.4021 15.6722 82.3809 15.5394C82.3598 15.4014 82.3307 15.2925 82.299 15.2129Z" fill="white"/>
<path d="M90.1883 19.5432C89.2715 18.9989 87.5145 18.4414 85.4484 18.9777V15.3696C85.4484 15.3059 85.4299 15.2501 85.3903 15.2024C85.3533 15.1546 85.2872 15.1147 85.1947 15.0829C85.1049 15.051 84.9807 15.0271 84.8275 15.0112C84.6742 14.9953 84.4814 14.9873 84.2462 14.9873C84.0111 14.9873 83.8182 14.9953 83.665 15.0112C83.5117 15.0271 83.3902 15.051 83.2977 15.0829C83.2052 15.1147 83.1418 15.1546 83.1022 15.2024C83.0652 15.2501 83.0441 15.3059 83.0441 15.3696V23.4805C83.2317 23.9132 83.5646 24.3088 84.0798 24.6115C85.8711 25.6735 88.434 25.6522 90.183 24.6115C90.6982 24.3088 91.0311 23.9132 91.2187 23.4805V20.6742C91.0338 20.2388 90.7009 19.8459 90.1883 19.5432ZM88.8884 22.5061C88.8884 22.6468 88.8488 22.8088 88.8276 22.8831C88.7721 23.069 88.0641 23.3929 87.1367 23.4168C86.2093 23.3929 85.5012 23.0716 85.4457 22.8831C85.4246 22.8088 85.385 22.6468 85.385 22.5061V21.6512C85.385 21.5105 85.4246 21.3459 85.4457 21.2742C85.5012 21.0884 86.2093 20.7645 87.1367 20.7406C88.0614 20.7645 88.7695 21.0857 88.8276 21.2742C88.8488 21.3459 88.8884 21.5105 88.8884 21.6512V22.5061Z" fill="white"/>
<path d="M32.9076 16.7952C33.7663 16.7873 34.7967 17.0395 35.6712 17.8864C35.6712 17.8864 35.9407 18.1094 36.6963 17.2147C37.1402 16.6917 36.8152 16.2749 36.8152 16.2749C35.2802 14.4482 30.2945 13.8111 28.7568 17.3713V22.7928C30.2919 26.353 35.2802 25.7159 36.8152 23.8893C36.8152 23.8893 37.1429 23.4724 36.6963 22.9494C35.9381 22.0547 35.6712 22.2777 35.6712 22.2777C34.7993 23.1273 33.7663 23.3795 32.9076 23.3689C31.9485 23.3583 31.0898 22.5804 31.0898 22.206V17.9581C31.0898 17.5837 31.9485 16.8058 32.9076 16.7952Z" fill="white"/>
<path d="M112.947 15.2024C112.91 15.1546 112.844 15.1147 112.752 15.0829C112.659 15.051 112.538 15.0271 112.387 15.0112C112.234 14.9953 112.041 14.9873 111.806 14.9873C111.571 14.9873 111.378 14.9953 111.225 15.0112C111.071 15.0271 110.95 15.051 110.857 15.0829C110.765 15.1147 110.702 15.1546 110.662 15.2024C110.625 15.2501 110.606 15.3059 110.606 15.3696V22.8698C110.543 23.0557 109.838 23.3743 108.918 23.3982C107.999 23.3743 107.296 23.0557 107.23 22.8698V15.3696C107.23 15.3059 107.211 15.2501 107.174 15.2024C107.137 15.1546 107.071 15.1147 106.979 15.0829C106.886 15.051 106.765 15.0271 106.612 15.0112C106.461 14.9953 106.265 14.9873 106.03 14.9873C105.795 14.9873 105.602 14.9953 105.449 15.0112C105.296 15.0271 105.177 15.051 105.084 15.0829C104.992 15.1147 104.926 15.1546 104.889 15.2024C104.849 15.2501 104.831 15.3059 104.831 15.3696V23.4646C105.018 23.8973 105.351 24.2929 105.867 24.5956C106.794 25.1451 107.864 25.3814 108.9 25.3841C108.905 25.3841 108.934 25.3841 108.934 25.3841C109.513 25.3841 110.102 25.3071 110.67 25.1451V25.546C110.67 25.9204 108.604 26.6877 106.691 26.4806C106.501 26.4567 106.445 26.6001 106.4 26.831C106.353 27.0859 106.247 27.5372 106.173 27.9594C106.136 28.1744 106.133 28.3682 106.326 28.4081C108.271 28.647 111.618 28.3444 113.006 26.3399V15.3696C113.003 15.3059 112.984 15.2501 112.947 15.2024Z" fill="#FFCB04"/>
<path d="M94.3284 23.1327C94.2385 23.0981 94.1144 23.0716 93.9638 23.053C93.8105 23.0344 93.6176 23.0238 93.3825 23.0238C93.1473 23.0238 92.9545 23.0344 92.8012 23.053C92.6506 23.0716 92.5265 23.0981 92.4366 23.1327C92.3441 23.1672 92.2781 23.2123 92.2411 23.2601C92.2041 23.3105 92.183 23.3689 92.183 23.4327V25.0017C92.183 25.0655 92.2015 25.1212 92.2411 25.169C92.2781 25.2194 92.3441 25.2566 92.4366 25.2885C92.5265 25.3203 92.6506 25.3442 92.8012 25.3602C92.9545 25.3761 93.1473 25.3841 93.3825 25.3841C93.6176 25.3841 93.8105 25.3761 93.9638 25.3602C94.117 25.3442 94.2385 25.3203 94.3284 25.2885C94.4208 25.2566 94.4842 25.2194 94.5239 25.169C94.5609 25.1212 94.5794 25.0655 94.5794 25.0017V23.4327C94.5794 23.3689 94.5609 23.3105 94.5239 23.2601C94.4842 23.2123 94.4208 23.1698 94.3284 23.1327Z" fill="#FFCB04"/>
<path d="M102.677 15.6164C100.886 14.5544 98.3233 14.5783 96.5716 15.6164C96.059 15.9191 95.7235 16.312 95.5359 16.7474V28.0973C95.5359 28.2832 95.7182 28.4186 96.1541 28.4557C96.3074 28.469 96.5003 28.4796 96.7354 28.4796C96.9706 28.4796 97.1634 28.4743 97.314 28.4557C97.7553 28.3973 97.8689 28.254 97.8689 28.0973V25.1583C99.4462 25.6043 101.29 25.4344 102.675 24.6114C103.187 24.3087 103.523 23.9131 103.708 23.4804V16.7474C103.526 16.3147 103.19 15.9191 102.677 15.6164ZM101.378 22.0971V22.506C101.378 22.6467 101.338 22.8087 101.317 22.883C101.261 23.0688 100.553 23.3928 99.6259 23.4166C98.7011 23.3928 97.993 23.0715 97.9349 22.883C97.9138 22.8087 97.8742 22.6467 97.8742 22.506V22.1317V17.7244C97.8742 17.5837 97.9138 17.4218 97.9349 17.3474C97.9904 17.1616 98.7011 16.8377 99.6259 16.8138C100.553 16.8377 101.261 17.1589 101.317 17.3474C101.338 17.4191 101.378 17.5811 101.378 17.7244V22.0971Z" fill="#FFCB04"/>
<path d="M15.7206 27.6885C19.7207 29.1726 23.0762 27.0407 23.0762 27.0407C21.7736 26.2044 20.656 25.3043 19.6969 24.3937C18.2596 25.9442 16.7616 27.0327 15.7206 27.6885Z" fill="white"/>
<path d="M13.0628 11.2543C13.7154 11.1216 14.5186 11.0764 15.3376 11.1561C15.6097 11.1109 15.8634 11.0658 16.0932 11.0207C17.1237 10.8162 18.1144 10.7738 18.7855 10.7711C16.3627 9.47815 13.1262 9.67993 10.1459 11.2384C10.4312 11.4879 10.7245 11.7402 10.9332 11.9154C11.6572 11.618 12.3758 11.395 13.0628 11.2543Z" fill="white"/>
<path d="M4.26982 17.1776C3.74668 18.2051 3.37943 19.2617 3.18127 20.3051C3.54324 19.2485 4.00561 18.298 4.53403 17.4351C4.4442 17.3502 4.35701 17.2626 4.26982 17.1776Z" fill="white"/>
<path d="M24.0494 13.0703C24.0494 13.0703 22.665 11.9128 20.9053 11.5172C20.5222 11.4322 20.1233 11.3791 19.7269 11.3472C19.5367 11.334 19.2302 11.318 18.8392 11.318C18.2896 11.3154 17.5816 11.3472 16.8259 11.4534C16.8312 11.4561 16.8338 11.4561 16.8391 11.4561C16.5723 11.4933 16.3503 11.5304 16.176 11.5623C16.102 11.5782 16.0227 11.5915 15.9408 11.6074C15.851 11.626 15.8034 11.6366 15.8034 11.6366C14.1732 11.9818 12.7307 12.4172 11.4545 12.9269C11.2326 12.7915 10.9393 12.5951 10.5932 12.3349H10.5906L9.61562 11.5251C9.47559 11.3977 9.33292 11.2649 9.18496 11.1216C9.09249 11.0366 9.01058 10.9517 8.93925 10.8773C8.93925 10.8773 8.93925 10.8773 8.9366 10.8747C7.02901 8.94983 4.56921 5.59132 2.69332 0C2.69332 0 -4.21049 7.4551 4.08835 16.2111C4.13327 16.2562 4.18082 16.3067 4.23367 16.3624C4.305 16.4368 4.37898 16.5111 4.45296 16.5855C4.57185 16.7049 4.69868 16.8324 4.82814 16.9598V16.9572C4.95232 17.0766 5.0765 17.1961 5.2086 17.3156C0.188609 23.8414 6.45303 32.2895 14.6568 27.6805C14.6594 27.6778 14.6647 27.6778 14.6673 27.6752C15.5947 27.1548 17.5631 25.9176 19.3993 23.9105C19.8115 23.3742 20.1814 22.8246 20.4984 22.2591C20.5037 22.2538 20.509 22.2485 20.5116 22.2432C20.509 22.2458 20.5037 22.2485 20.5037 22.2511C21.7851 19.9705 22.2713 17.5067 21.8908 15.3562C21.3122 15.4199 20.6543 15.5155 20.2474 15.5792C20.5803 17.2545 20.2184 19.097 19.5499 20.7272C19.5499 20.7298 19.5499 20.7298 19.5499 20.7325C19.5473 20.7351 19.5446 20.7378 19.5446 20.7431C19.3544 21.2051 19.1378 21.6458 18.8973 22.044C18.7045 22.3679 18.5089 22.6679 18.3108 22.96C15.5868 19.8696 14.5881 17.0049 14.4137 16.4554C15.5921 16.0359 16.929 15.6615 18.4376 15.3483L18.435 15.3456L18.6014 15.3137C18.9713 15.2394 19.3491 15.1651 19.7402 15.0987C19.8643 15.0775 19.9885 15.0562 20.11 15.0376V15.0403C20.6068 14.9659 21.5077 14.8332 22.1867 14.7721C22.7654 14.7058 23.27 14.6473 23.6452 14.5677C24.7284 14.3473 24.6201 13.4951 24.0494 13.0703ZM13.769 13.4659C13.8139 13.3093 13.9698 13.2163 14.1178 13.2588C14.2657 13.3013 14.3476 13.4659 14.3027 13.6225C14.2552 13.7818 14.0993 13.8748 13.954 13.8296C13.806 13.7871 13.7241 13.6252 13.769 13.4659ZM4.50316 21.5688C4.47145 21.6777 4.36577 21.7414 4.26273 21.7122C4.16233 21.683 4.1042 21.5715 4.13855 21.4626C4.17025 21.3537 4.27594 21.29 4.37898 21.3192C4.47938 21.3484 4.53486 21.4599 4.50316 21.5688ZM5.2588 19.9732C5.22181 20.098 5.09763 20.175 4.97874 20.1404C4.85984 20.1059 4.79379 19.9732 4.83078 19.8484C4.86777 19.721 4.99195 19.6466 5.11084 19.6811C5.22974 19.7156 5.29579 19.8484 5.2588 19.9732ZM6.29715 18.5156C6.25223 18.6696 6.09899 18.7599 5.95632 18.72C5.81364 18.6776 5.73174 18.5156 5.77665 18.3643C5.82157 18.2103 5.97481 18.1174 6.11748 18.1598C6.2628 18.2023 6.34206 18.359 6.29715 18.5156ZM6.40811 14.9951C6.40811 14.9951 6.21788 14.7721 6.01973 14.5544C2.29436 10.118 4.41333 5.60194 4.41333 5.60194C5.44903 7.98608 7.51251 10.195 9.24045 11.7535L9.94589 12.3721C11.1665 13.4101 12.0781 14.0367 12.0781 14.0367C12.3211 15.2952 8.62748 16.9041 8.62748 16.9041C7.73973 16.2828 7.01051 15.643 6.40811 14.9951ZM8.49273 20.0475C10.1123 23.3582 11.9063 25.3999 13.666 26.6132C8.321 28.6442 4.80172 24.1547 8.49273 20.0475ZM18.0281 23.3556C17.8748 23.5653 17.7189 23.7671 17.5631 23.9609C17.5631 23.9636 17.5631 23.9636 17.5604 23.9636C17.4045 24.1574 17.2434 24.3406 17.0848 24.5158C15.2274 24.3591 12.403 23.2335 10.403 18.4174C10.5219 18.3377 10.6434 18.2581 10.7676 18.1811C10.7702 18.1784 10.7702 18.1784 10.7702 18.1784C11.1375 17.9501 11.5311 17.7271 11.9539 17.5094C11.9724 17.5014 11.9882 17.4908 12.0067 17.4828C12.1283 17.4218 12.2524 17.3607 12.3793 17.2996C12.4242 17.2784 12.4717 17.2572 12.5193 17.2333C12.6408 17.1749 12.765 17.1191 12.8892 17.0634C12.9367 17.0421 12.9843 17.0209 13.0319 17.0023C13.3198 16.8775 13.6184 16.7554 13.9302 16.6359C13.9302 16.6359 13.9328 16.6359 13.9328 16.6333C14.2314 17.5359 15.3146 20.382 18.0281 23.3556ZM16.1522 13.142C16.1073 13.2986 15.9487 13.3942 15.8008 13.3491C15.6528 13.3066 15.5709 13.1446 15.6158 12.9854C15.6634 12.8261 15.8193 12.7331 15.9672 12.7783C16.1152 12.8207 16.1971 12.9827 16.1522 13.142ZM20.5381 12.6322C19.5896 12.3137 19.7349 12.1889 19.7349 12.1889C19.8247 12.0667 20.6517 11.8623 21.9146 11.9181C21.9146 11.9181 22.3611 12.1278 22.6993 12.3269C23.0375 12.526 23.3123 12.7331 23.3123 12.7331C21.9912 12.8022 21.2831 12.8845 20.5381 12.6322Z" fill="white"/>
<g opacity="0.5">
<path opacity="0.5" d="M4.42829 21.3377C4.32789 21.3085 4.21956 21.3723 4.18786 21.4811C4.15615 21.59 4.21164 21.7015 4.31468 21.7307C4.41508 21.7599 4.5234 21.6962 4.55511 21.5873C4.58417 21.4785 4.52869 21.367 4.42829 21.3377ZM5.11523 19.6784C4.9937 19.6439 4.86688 19.7182 4.82989 19.8457C4.7929 19.9731 4.85895 20.1058 4.98049 20.1404C5.09938 20.1749 5.22884 20.1005 5.26583 19.9731C5.30282 19.8457 5.23677 19.7129 5.11523 19.6784ZM6.12452 18.1545C5.9792 18.112 5.82332 18.2049 5.77576 18.3589C5.73084 18.5155 5.81275 18.6748 5.95806 18.7147C6.10338 18.7571 6.25926 18.6669 6.30682 18.5102C6.35438 18.3562 6.27247 18.1969 6.12452 18.1545ZM14.1248 13.2561C13.9742 13.2136 13.813 13.3065 13.7655 13.4658C13.7179 13.6251 13.8025 13.7871 13.9531 13.8296C14.1037 13.872 14.2648 13.7791 14.3124 13.6198C14.3626 13.4632 14.278 13.3012 14.1248 13.2561ZM15.969 12.7755C15.8184 12.7331 15.6572 12.826 15.6123 12.9853C15.5647 13.1419 15.6493 13.3065 15.7999 13.349C15.9505 13.3915 16.1117 13.2986 16.1566 13.1393C16.2041 12.9826 16.1196 12.8207 15.969 12.7755Z" fill="white"/>
<path opacity="0.5" d="M23.4197 12.7251C22.0432 12.7942 21.3061 12.8791 20.5266 12.6295C19.5385 12.3136 19.6864 12.1888 19.6864 12.1888C19.7816 12.0667 20.6429 11.8623 21.9587 11.9154C21.9587 11.9154 22.4237 12.1225 22.7777 12.3216C23.1344 12.518 23.4197 12.7251 23.4197 12.7251Z" fill="white"/>
</g>
<path opacity="0.5" d="M12.0693 14.0314C12.0693 14.0314 6.3914 10.1313 4.41511 5.60193C4.41511 5.60193 1.46124 11.8995 8.62926 16.9014C8.62662 16.9014 12.352 15.3111 12.0693 14.0314Z" fill="white"/>
<path opacity="0.5" d="M17.0866 24.5131C15.253 24.3538 12.3149 23.252 10.3994 18.4174C10.3994 18.4174 11.4668 17.5943 13.9372 16.6279C13.9372 16.6279 14.92 19.8537 18.0298 23.3529C18.0457 23.3715 17.1658 24.46 17.0866 24.5131Z" fill="white"/>
</svg>
