<?xml version="1.0" encoding="utf-8"?>
<!-- Generator: Adobe Illustrator 25.0.0, SVG Export Plug-In . SVG Version: 6.00 Build 0)  -->
<svg version="1.1" id="Слой_1" xmlns="http://www.w3.org/2000/svg" xmlns:xlink="http://www.w3.org/1999/xlink" x="0px" y="0px"
	 viewBox="0 0 500 134" style="enable-background:new 0 0 500 134;" xml:space="preserve">
<style type="text/css">
	.st0{fill:#3CBFEB;}
	.st1{fill:#074793;}
	.st2{fill:none;}
	.st3{fill:#F7A712;}
</style>
<g>
	<g>
		<path class="st0" d="M103.27,59.72c-0.02-0.02-0.04-0.04-0.06-0.06c-0.02-0.02-0.04-0.05-0.06-0.06c0.01,0.01,0.01,0.01,0.02,0.02
			c-0.01-0.01-0.01-0.01-0.01-0.02c0,0-5.95-4.93-13.5-6.6c-1.71-0.38-3.49-0.61-5.26-0.73c-4.51-0.31-8.94,0.07-12.1,0.5
			c-2.75,0.37-4.53,0.78-4.53,0.78c-6.99,1.49-13.18,3.35-18.63,5.54c-1.16-0.7-2.77-1.76-4.68-3.26c-0.99-0.78-2.07-1.67-3.21-2.69
			C32.78,45.54,20.57,30.78,11.5,4c0,0-30.59,33.01,8.03,71.12c0.4,0.4,0.81,0.8,1.23,1.2c0.54,0.51,1.08,1.03,1.65,1.54
			c-21.46,27.87,5.43,63.84,40.54,44.16c-0.58,0.22-1.15,0.44-1.73,0.63c-27.03,12.53-49.93-14.73-26.12-36.41
			c0.26,0.77,0.59,1.58,1.01,2.44c26.17,53.92,62.97,30.52,62.97,30.52c-29.74-18.97-37.35-45.52-37.35-45.52
			c-0.04-0.58-0.03-1.08,0.06-1.73c10.34-3.4,23.17-6.06,38.94-7.57C105.22,63.97,103.85,60.46,103.27,59.72z"/>
		<path class="st1" d="M103.18,59.61c0.01,0.01,0.02,0.03,0.04,0.04c0.02,0.02,0.04,0.04,0.06,0.06c0.58,0.75,1.94,4.26-2.55,4.67
			c-109.42,10.46-78.84,76.5-39.5,58.27c0.58-0.19,1.15-0.41,1.73-0.63c5.14-2,10.25-5.37,15.21-10.3
			c4.01-3.99,7.29-8.37,9.84-12.91c0.01-0.01,0.01-0.02,0.02-0.03c5.93-10.56,7.86-22.02,5.4-31.71c3.23-0.39,6.05-0.68,8.01-1.09
			C106.05,65.03,105.61,61.43,103.18,59.61z M84.7,68.29c0.52-0.11,1.07-0.18,1.59-0.27c2.34,7.75,0.77,16.55-2.37,24.26l-0.02,0.04
			l-0.02,0.04c-0.82,1.99-1.73,3.86-2.74,5.56c-1.21,2.02-2.44,3.88-3.7,5.6C65.78,90.86,61.11,78.74,59.82,74.86
			C66.72,72.23,74.95,69.98,84.7,68.29z M44.69,82.51c8.61,20.56,20.75,25.31,28.71,25.96c-0.06,0.07-0.12,0.14-0.18,0.21
			C39.75,136.74,11.85,104.65,44.69,82.51z"/>
		<path class="st2" d="M56.04,51.93c-3.72,0.77-7.64,2.06-11.56,3.89c1.92,1.5,3.52,2.56,4.68,3.26c5.45-2.19,11.64-4.05,18.63-5.54
			c0,0,1.78-0.41,4.53-0.78c-0.02,0-0.05,0-0.07,0.01C66.76,51.04,60.56,51.01,56.04,51.93z"/>
		<path class="st1" d="M56.04,51.93c4.53-0.92,10.72-0.9,16.21,0.84c0.02,0,0.05,0,0.07-0.01c3.16-0.43,7.59-0.82,12.1-0.5
			c-11.19-8.51-28.15-7.89-43.15,0.87c1.14,1.02,2.22,1.92,3.21,2.69C48.4,53.99,52.32,52.7,56.04,51.93z"/>
		<path class="st1" d="M13.75,90.61c1.83-5.35,4.23-10.1,7.02-14.29c-0.42-0.4-0.83-0.8-1.23-1.2
			C16.68,80.17,14.73,85.43,13.75,90.61z"/>
		<path class="st1" d="M18.89,94.95L18.89,94.95c-0.43-0.12-0.9,0.13-1.04,0.61c-0.12,0.46,0.12,0.94,0.55,1.06
			c0.43,0.12,0.89-0.16,1.02-0.61C19.58,95.56,19.32,95.08,18.89,94.95 M22.03,87.96L22.03,87.96c-0.51-0.14-1.05,0.17-1.2,0.7
			c-0.16,0.54,0.13,1.1,0.63,1.25c0.52,0.16,1.05-0.18,1.2-0.7C22.81,88.66,22.55,88.11,22.03,87.96 M26.34,81.47L26.34,81.47
			c-0.63-0.2-1.27,0.18-1.46,0.86c-0.19,0.65,0.16,1.32,0.76,1.5c0.61,0.18,1.27-0.2,1.45-0.87C27.31,82.31,26.95,81.64,26.34,81.47
			 M60.58,60.48L60.58,60.48c-0.62-0.18-1.29,0.21-1.49,0.9c-0.21,0.67,0.14,1.37,0.77,1.56c0.65,0.18,1.31-0.22,1.5-0.9
			C61.57,61.35,61.21,60.65,60.58,60.48 M68.5,58.4c-0.62-0.18-1.3,0.24-1.49,0.9c-0.2,0.69,0.16,1.37,0.78,1.56
			c0.62,0.18,1.31-0.22,1.51-0.89C69.49,59.28,69.14,58.59,68.5,58.4"/>
		<path class="st1" d="M101.16,58.18c-5.91,0.28-9.06,0.63-12.4-0.42c-4.25-1.34-3.63-1.88-3.63-1.88c0.42-0.53,4.13-1.4,9.76-1.18
			c0,0,2.01,0.89,3.51,1.76C99.92,57.3,101.16,58.18,101.16,58.18"/>
		<path class="st1" d="M51.84,63.82c0,0-24.44-16.59-32.92-35.91c0,0-12.61,26.81,18.14,48.18C37.06,76.08,52.89,69.18,51.84,63.82"
			/>
		<path class="st2" d="M103.22,59.65c0.02,0.02,0.04,0.04,0.06,0.06C103.25,59.69,103.24,59.67,103.22,59.65z"/>
		<path class="st2" d="M84.7,68.29c-9.75,1.68-17.98,3.94-24.87,6.57c1.28,3.87,5.96,16,17.61,28.65c1.26-1.72,2.5-3.59,3.7-5.6
			c1.01-1.7,1.92-3.58,2.74-5.56l0.02-0.04l0.02-0.04c3.15-7.71,4.71-16.51,2.37-24.26C85.77,68.12,85.22,68.19,84.7,68.29z"/>
		<path class="st2" d="M44.69,82.51c-32.84,22.14-4.94,54.23,28.53,26.16c0.06-0.07,0.12-0.14,0.18-0.21
			C65.44,107.82,53.3,103.07,44.69,82.51z"/>
		<path class="st0" d="M88.05,98.75c-0.01,0.01-0.03,0.03-0.03,0.04c-0.01,0.01-0.01,0.02-0.02,0.03
			C88.02,98.79,88.04,98.77,88.05,98.75z"/>
		<path class="st1" d="M103.22,59.65c-0.01-0.01-0.02-0.03-0.04-0.04c-0.01-0.01-0.01-0.01-0.02-0.02
			C103.17,59.6,103.2,59.63,103.22,59.65z"/>
	</g>
	<path class="st1" d="M239.04,69.07c-4.16-2.45-8.93-3.52-13.6-3.53h-0.15c-4.64,0.01-9.45,1.08-13.57,3.53
		c-2.3,1.35-3.8,3.09-4.64,5.04v29.89c0.84,1.93,2.34,3.68,4.64,5.04c10.65,6.28,25.49,3.48,31.42-3.02c0,0,1.46-1.84-0.54-4.18
		c-3.38-3.98-4.59-2.99-4.59-2.99c-8.25,7.99-19.73,4.09-20.2,2.48c-0.12-0.32-0.29-1.04-0.29-1.69v-5.56
		c2.54,0.69,5.17,1.05,7.76,1.05v0.02c0.02,0,0.15-0.02,0.15-0.02c4.66,0,9.44-1.05,13.6-3.48c2.28-1.36,3.78-3.13,4.61-5.05V74.11
		C242.82,72.16,241.32,70.42,239.04,69.07 M233.2,82.27c0,0.63-0.19,1.33-0.26,1.65c-0.25,0.85-3.44,2.26-7.56,2.37
		c-4.16-0.11-7.31-1.52-7.56-2.37c-0.12-0.32-0.29-1.03-0.29-1.65v-3.84c0-0.62,0.17-1.34,0.29-1.66c0.25-0.83,3.41-2.27,7.56-2.36
		c4.12,0.09,7.31,1.53,7.56,2.36c0.08,0.32,0.26,1.05,0.26,1.66V82.27z"/>
	<path class="st1" d="M286.87,72c0,0-1.47,1.85,0.52,4.19c3.4,3.97,4.61,2.99,4.61,2.99c3.89-3.77,8.51-4.91,12.36-4.87
		c4.27,0.07,8.12,1.38,8.12,3.04v6.58c-9.37-2.49-17.34,0-21.5,2.46c-2.29,1.36-3.78,3.12-4.63,5.04v12.5
		c0.85,1.92,2.34,3.69,4.63,5.05c7.85,4.62,19.32,4.71,27.32,0c2.29-1.36,3.78-3.13,4.63-5.05v-29.9
		C316.8,62.26,293.74,63.86,286.87,72 M312.48,99.59c0,0.63-0.18,1.36-0.28,1.67c-0.28,0.86-3.43,2.27-7.56,2.37
		c-4.15-0.1-7.32-1.51-7.58-2.37c-0.08-0.31-0.26-1.04-0.26-1.67v-3.83c0-0.62,0.19-1.35,0.26-1.67c0.25-0.82,3.43-2.26,7.58-2.37
		c4.13,0.11,7.29,1.55,7.56,2.37c0.1,0.32,0.28,1.05,0.28,1.67V99.59z"/>
	<path class="st1" d="M283.01,67.26c-0.18-0.36-0.35-0.62-0.56-0.77c-0.24-0.15-0.5-0.22-0.79-0.22h-33.06
		c-0.29,0-0.56,0.07-0.76,0.22c-0.24,0.15-0.43,0.41-0.58,0.77c-0.15,0.36-0.31,0.84-0.35,1.44c-0.11,0.61-0.14,1.37-0.14,2.28
		c0,0.94,0.03,1.7,0.14,2.28c0.04,0.63,0.2,1.1,0.35,1.44c0.15,0.36,0.34,0.64,0.58,0.77c0.2,0.15,0.47,0.22,0.76,0.22h11.16v34.37
		c0,0.26,0.08,0.52,0.24,0.73c0.19,0.22,0.47,0.39,0.89,0.54c0.39,0.14,0.95,0.24,1.64,0.3c0.66,0.08,1.54,0.13,2.59,0.13
		c1.06,0,1.92-0.06,2.59-0.13c0.69-0.06,1.23-0.15,1.65-0.3c0.41-0.15,0.69-0.32,0.87-0.54c0.17-0.21,0.26-0.46,0.26-0.73V75.71
		h11.15c0.3,0,0.55-0.07,0.79-0.22c0.21-0.13,0.39-0.41,0.56-0.77c0.14-0.34,0.26-0.82,0.37-1.44c0.08-0.58,0.11-1.35,0.11-2.28
		c0-0.92-0.03-1.68-0.11-2.28C283.27,68.1,283.15,67.63,283.01,67.26"/>
	<path class="st1" d="M201.96,68.71c-0.1-0.61-0.22-1.08-0.36-1.44c-0.17-0.36-0.33-0.62-0.58-0.77c-0.21-0.15-0.47-0.22-0.76-0.22
		h-20.51c-7.55,0-7.65,2.22-8.16,8.3c-0.94,10.81-1.96,22.66-9.96,29.52c-0.22,0.2-0.36,0.44-0.42,0.71
		c-0.07,0.28-0.04,0.62,0.11,1.04c0.13,0.41,0.41,0.9,0.78,1.49c0.37,0.58,0.87,1.28,1.53,2.08c0.66,0.83,0.92,0.99,1.39,1.46
		c0.5,0.48,0.95,0.83,1.35,1.03c0.41,0.23,0.76,0.3,1.06,0.26c0.31-0.03,0.6-0.2,0.87-0.41c10.06-7.4,12.04-20.81,13.64-31.9
		c0.19-1.38,0.04-4.13,2.64-4.13h6.77v34.37c0,0.26,0.08,0.52,0.25,0.73c0.18,0.22,0.47,0.4,0.88,0.54
		c0.41,0.14,0.96,0.24,1.64,0.31c0.67,0.07,1.55,0.12,2.59,0.12c1.05,0,1.91-0.06,2.6-0.12c0.66-0.07,1.22-0.17,1.63-0.31
		c0.42-0.14,0.71-0.32,0.88-0.54c0.18-0.21,0.26-0.46,0.26-0.73v-39.3C202.08,69.95,202.03,69.26,201.96,68.71"/>
	<path class="st1" d="M361.73,67.26c-0.17-0.36-0.32-0.62-0.56-0.77c-0.24-0.15-0.5-0.22-0.76-0.22h-33.08
		c-0.29,0-0.57,0.07-0.77,0.22c-0.23,0.15-0.42,0.41-0.58,0.77c-0.14,0.36-0.28,0.84-0.35,1.44c-0.1,0.61-0.13,1.37-0.13,2.28
		c0,0.94,0.03,1.7,0.13,2.28c0.08,0.63,0.21,1.1,0.35,1.44c0.17,0.36,0.35,0.64,0.58,0.77c0.2,0.15,0.49,0.22,0.77,0.22h11.17v34.37
		c0,0.26,0.08,0.52,0.23,0.73c0.19,0.22,0.47,0.39,0.88,0.54c0.41,0.14,0.96,0.24,1.65,0.3c0.67,0.08,1.54,0.13,2.59,0.13
		c1.06,0,1.91-0.06,2.59-0.13c0.68-0.06,1.26-0.15,1.64-0.3c0.43-0.15,0.71-0.32,0.87-0.54c0.18-0.21,0.26-0.46,0.26-0.73V75.71
		h11.18c0.26,0,0.52-0.07,0.76-0.22c0.24-0.13,0.4-0.41,0.56-0.77c0.17-0.34,0.29-0.82,0.35-1.44c0.09-0.58,0.14-1.35,0.14-2.28
		c0-0.92-0.06-1.68-0.14-2.28C362.02,68.1,361.89,67.63,361.73,67.26"/>
	<path class="st1" d="M397.03,86.54c-4.09-2.41-11.96-4.9-21.2-2.5V67.97c0-0.28-0.08-0.54-0.24-0.75
		c-0.19-0.22-0.46-0.39-0.87-0.51c-0.42-0.17-0.97-0.28-1.64-0.33c-0.68-0.07-1.55-0.11-2.6-0.11c-1.06,0-1.93,0.04-2.59,0.11
		c-0.69,0.06-1.23,0.17-1.66,0.33c-0.4,0.12-0.68,0.29-0.87,0.51c-0.14,0.21-0.24,0.47-0.24,0.75v36.12
		c0.83,1.92,2.34,3.68,4.63,5.03c7.99,4.73,19.47,4.63,27.3,0c2.3-1.35,3.8-3.11,4.63-5.03V91.58
		C400.84,89.66,399.34,87.91,397.03,86.54 M391.22,99.74c0,0.64-0.18,1.35-0.26,1.68c-0.26,0.84-3.43,2.28-7.56,2.37
		c-4.16-0.09-7.31-1.53-7.56-2.37c-0.12-0.33-0.29-1.04-0.29-1.68v-3.81c0-0.64,0.17-1.35,0.29-1.68c0.25-0.83,3.41-2.26,7.56-2.37
		c4.13,0.11,7.3,1.54,7.56,2.37c0.09,0.33,0.26,1.04,0.26,1.68V99.74z"/>
	<path class="st1" d="M140.73,74.31c3.85-0.03,8.47,1.1,12.37,4.87c0,0,1.19,0.98,4.59-2.99c2-2.34,0.54-4.19,0.54-4.19
		c-6.87-8.14-29.21-10.96-36.06,4.88v24.15c6.85,15.84,29.19,12.99,36.06,4.86c0,0,1.46-1.85-0.54-4.18
		c-3.4-3.98-4.59-2.98-4.59-2.98c-3.9,3.78-8.52,4.88-12.37,4.84c-4.27-0.03-8.12-3.51-8.12-5.16V79.49
		C132.62,77.81,136.46,74.37,140.73,74.31"/>
	<path class="st3" d="M498.89,67.22c-0.18-0.22-0.49-0.39-0.89-0.54c-0.4-0.13-0.95-0.23-1.63-0.3c-0.68-0.09-1.54-0.11-2.59-0.11
		c-1.05,0-1.93,0.02-2.59,0.11c-0.69,0.07-1.25,0.17-1.65,0.3c-0.42,0.15-0.69,0.32-0.88,0.54c-0.17,0.22-0.24,0.47-0.24,0.75v33.41
		c-0.29,0.83-3.44,2.24-7.56,2.35c-4.1-0.11-7.26-1.52-7.54-2.35V67.97c0-0.28-0.09-0.53-0.25-0.75c-0.18-0.22-0.47-0.39-0.87-0.54
		c-0.41-0.13-0.97-0.23-1.63-0.3c-0.72-0.09-1.57-0.11-2.62-0.11c-1.04,0-1.91,0.02-2.57,0.11c-0.69,0.07-1.25,0.17-1.66,0.3
		c-0.41,0.15-0.68,0.32-0.86,0.54c-0.18,0.22-0.26,0.47-0.26,0.75v36.06c0.83,1.92,2.33,3.68,4.61,5.04
		c4.18,2.43,8.96,3.48,13.6,3.51h0.15c2.59-0.02,5.22-0.36,7.78-1.08v1.81c0,1.65-9.26,5.07-17.81,4.15
		c-0.87-0.1-1.12,0.54-1.31,1.55c-0.21,1.16-0.69,3.15-1.01,5.03c-0.18,0.95-0.19,1.81,0.68,2.02c8.69,1.05,23.67-0.29,29.88-9.23
		V67.97C499.13,67.69,499.05,67.44,498.89,67.22"/>
	<path class="st3" d="M415.57,102.54c-0.41-0.15-0.96-0.28-1.64-0.35c-0.66-0.08-1.54-0.12-2.59-0.12c-1.05,0-1.92,0.04-2.6,0.12
		c-0.69,0.08-1.22,0.2-1.64,0.35c-0.42,0.17-0.71,0.34-0.87,0.58c-0.19,0.23-0.25,0.49-0.25,0.76v6.98c0,0.28,0.07,0.53,0.25,0.76
		c0.17,0.22,0.45,0.36,0.87,0.52c0.42,0.15,0.95,0.25,1.64,0.32c0.68,0.07,1.55,0.11,2.6,0.11c1.05,0,1.93-0.04,2.59-0.11
		c0.68-0.07,1.23-0.17,1.64-0.32c0.41-0.15,0.69-0.3,0.88-0.52c0.18-0.23,0.25-0.48,0.25-0.76v-6.98c0-0.28-0.08-0.53-0.25-0.76
		C416.26,102.88,415.98,102.7,415.57,102.54"/>
	<path class="st3" d="M452.93,69.07c-8.02-4.73-19.48-4.63-27.31,0c-2.3,1.35-3.8,3.09-4.63,5.04v50.54c0,0.82,0.8,1.42,2.79,1.59
		c0.65,0.04,1.51,0.11,2.57,0.11c1.06,0,1.93-0.02,2.6-0.11c1.96-0.25,2.48-0.9,2.48-1.59v-13.11c7.07,2,15.32,1.25,21.5-2.43
		c2.29-1.33,3.79-3.11,4.63-5.03V74.11C456.72,72.16,455.22,70.42,452.93,69.07 M447.11,97.93v1.81c0,0.64-0.17,1.35-0.26,1.68
		c-0.26,0.84-3.43,2.28-7.56,2.37c-4.13-0.09-7.33-1.53-7.56-2.37c-0.1-0.33-0.29-1.04-0.29-1.68v-1.66V78.43
		c0-0.62,0.19-1.35,0.29-1.67c0.23-0.83,3.43-2.27,7.56-2.36c4.13,0.09,7.3,1.53,7.56,2.36c0.1,0.32,0.26,1.05,0.26,1.67V97.93z"/>
</g>
</svg>
