<svg width="164" height="48" viewBox="0 0 164 48" fill="none" xmlns="http://www.w3.org/2000/svg">
<path d="M39.8904 21.6227C39.8577 21.5902 39.8577 21.6227 39.8904 21.6227C39.8577 21.5902 39.8577 21.5902 39.8577 21.5902C39.8577 21.5902 37.5689 19.7014 34.6589 19.0501C34.005 18.9199 33.3183 18.8222 32.6317 18.757C30.8987 18.6268 29.1658 18.7896 27.956 18.9524C26.9097 19.0827 26.2231 19.2455 26.2231 19.2455C23.5092 19.8317 21.1223 20.5481 19.0297 21.3622C18.5719 21.1017 17.9507 20.6784 17.2314 20.1248C16.839 19.8317 16.4466 19.4735 15.9889 19.0827C12.7192 16.1519 8.01077 10.4857 4.47949 0.195312C4.47949 0.195312 -7.32416 12.8954 7.58571 27.5495C7.7492 27.7123 7.91268 27.8425 8.07617 28.0054C8.27235 28.2007 8.50123 28.3961 8.69741 28.5915C0.425047 39.3052 10.79 53.1451 24.3593 45.5902C24.1304 45.6879 23.9016 45.753 23.7054 45.8181C13.275 50.6376 4.41409 40.1519 13.6347 31.8154C13.7328 32.1085 13.8636 32.4341 14.027 32.7598C24.1304 53.5033 38.3537 44.483 38.3537 44.483C26.877 37.1885 23.9343 26.9633 23.9343 26.9633C23.9343 26.7353 23.9343 26.54 23.967 26.312C27.956 25.0094 32.926 23.9674 39.0076 23.4138C40.6425 23.2509 40.0866 21.9158 39.8904 21.6227Z" fill="#3CBFEB"/>
<path d="M39.8577 21.5903C39.8904 21.6229 39.8904 21.6229 39.8904 21.6229C40.1193 21.916 40.6425 23.2511 38.9095 23.4139C-3.33512 27.4194 8.46853 52.8196 23.6727 45.8183C23.9016 45.7532 24.1304 45.6555 24.3266 45.5903C26.3211 44.8088 28.283 43.5388 30.2121 41.6175C31.7489 40.0869 33.024 38.3936 34.005 36.6677C36.2938 32.5971 37.0458 28.2009 36.0976 24.4886C37.3401 24.3257 38.4191 24.2281 39.2038 24.0652C40.9367 23.6419 40.7733 22.2742 39.8577 21.5903ZM32.6971 24.9119C32.8933 24.8793 33.1221 24.8468 33.3183 24.8142C34.2338 27.8101 33.6126 31.1968 32.4028 34.1602C32.0758 34.9092 31.7489 35.6582 31.3565 36.3095C30.8987 37.091 30.4083 37.8074 29.9178 38.4587C25.4056 33.6066 23.6073 28.9173 23.1168 27.4519C25.7653 26.4424 28.9369 25.5632 32.6971 24.9119ZM17.2641 30.3827C20.5992 38.2959 25.2748 40.1195 28.3484 40.38C28.3157 40.4126 28.3157 40.4451 28.283 40.4451C15.3349 51.2565 4.57758 38.9146 17.2641 30.3827Z" fill="#074793"/>
<path d="M21.6455 18.6268C23.3784 18.2686 25.798 18.2686 27.8906 18.9524H27.9233C29.1331 18.7896 30.866 18.6268 32.599 18.757C28.283 15.468 21.7436 15.7285 15.9235 19.0827C16.3812 19.4734 16.7736 19.8317 17.166 20.1247C18.7027 19.4083 20.2068 18.9199 21.6455 18.6268Z" fill="#074793"/>
<path d="M5.29692 33.5086C6.01625 31.4571 6.93177 29.6334 8.01077 28.0052C7.84729 27.8424 7.6838 27.7121 7.52032 27.5493C6.44131 29.4706 5.68928 31.5222 5.29692 33.5086Z" fill="#074793"/>
<path d="M7.29144 35.1696C7.12795 35.137 6.93177 35.2347 6.89907 35.3976C6.86637 35.5604 6.93177 35.7558 7.12795 35.8209C7.29144 35.8535 7.45492 35.7558 7.52032 35.5929C7.55301 35.3976 7.45492 35.2022 7.29144 35.1696ZM8.50123 32.4668C8.30505 32.4016 8.10886 32.5319 8.04347 32.7273C7.97808 32.9227 8.10886 33.1506 8.27235 33.2157C8.46853 33.2809 8.66471 33.1506 8.73011 32.9552C8.7955 32.7598 8.69741 32.5319 8.50123 32.4668ZM10.1688 29.9919C9.9399 29.9267 9.67832 30.057 9.61293 30.3175C9.54754 30.578 9.67832 30.8385 9.9072 30.9037C10.1361 30.9688 10.3977 30.8385 10.4631 30.578C10.5284 30.3175 10.3977 30.057 10.1688 29.9919ZM23.3784 21.9159C23.1495 21.8507 22.888 21.981 22.7899 22.2741C22.7245 22.5346 22.8553 22.7951 23.0841 22.8602C23.3457 22.9254 23.5746 22.7625 23.6727 22.502C23.7708 22.2415 23.64 21.981 23.3784 21.9159ZM26.4519 21.1018C26.2231 21.0366 25.9615 21.1995 25.8634 21.46C25.798 21.7205 25.9288 21.981 26.1577 22.0461C26.3865 22.1113 26.6481 21.9484 26.7462 21.7205C26.8443 21.46 26.6808 21.1669 26.4519 21.1018Z" fill="#074793"/>
<path d="M39.073 21.0365C36.7842 21.1342 35.5744 21.2644 34.2992 20.8737C32.6644 20.3526 32.8933 20.1572 32.8933 20.1572C33.0568 19.9619 34.4954 19.6362 36.6534 19.7013C36.6534 19.7013 37.4382 20.027 38.0267 20.3852C38.5826 20.6783 39.073 21.0365 39.073 21.0365Z" fill="#074793"/>
<path d="M20.0106 23.1857C20.0106 23.1857 10.5611 16.8031 7.29144 9.37842C7.29144 9.37842 2.41957 19.7013 14.2886 27.9076C14.3213 27.9076 20.403 25.2699 20.0106 23.1857Z" fill="#074793"/>
<path d="M39.8558 21.5885C39.8257 21.5584 39.8257 21.5584 39.8558 21.5885C39.8257 21.5584 39.8558 21.5885 39.8558 21.5885Z" fill="#074793"/>
<path d="M83.2795 21.2651C82.0043 20.5161 80.533 20.1904 79.0943 20.1904H79.0616C77.6229 20.1904 76.1515 20.5161 74.8764 21.2651C74.157 21.6884 73.6993 22.2094 73.4377 22.7956V31.9788C73.6993 32.5649 74.157 33.1185 74.8764 33.5093C78.1461 35.4306 82.7237 34.5839 84.5547 32.5975C84.5547 32.5975 85.0125 32.0439 84.3912 31.3275C83.3449 30.09 82.9852 30.4157 82.9852 30.4157C80.4349 32.858 76.9036 31.6857 76.7401 31.1646C76.7074 31.067 76.642 30.839 76.642 30.6436V28.9177C77.4267 29.1457 78.2442 29.2433 79.0289 29.2433H79.0616C80.5003 29.2433 81.9716 28.9177 83.2468 28.1687C83.9662 27.7454 84.4239 27.2244 84.6855 26.6056V22.8282C84.4566 22.2094 83.9988 21.6884 83.2795 21.2651ZM81.4812 25.303C81.4812 25.4984 81.4158 25.7264 81.3831 25.8241C81.3177 26.0846 80.3368 26.5079 79.0616 26.5405C77.7864 26.5079 76.8055 26.052 76.7401 25.8241C76.7074 25.7264 76.642 25.4984 76.642 25.303V24.1307C76.642 23.9353 76.7074 23.7074 76.7401 23.6097C76.8055 23.3492 77.7864 22.9258 79.0616 22.8933C80.3368 22.9258 81.3177 23.3817 81.3831 23.6097C81.4158 23.7074 81.4812 23.9353 81.4812 24.1307V25.303Z" fill="#094695"/>
<path d="M98.0259 22.1766C98.0259 22.1766 97.5681 22.7302 98.1894 23.4466C99.2357 24.6841 99.5954 24.3585 99.5954 24.3585C100.805 23.1861 102.211 22.8605 103.421 22.8605C104.729 22.8605 105.939 23.2838 105.939 23.8049V25.8239C103.061 25.0423 100.576 25.8239 99.3011 26.5728C98.5818 26.9962 98.124 27.5172 97.8624 28.1359V31.9785C98.124 32.5647 98.5818 33.1183 99.3011 33.5091C101.721 34.9419 105.252 34.9745 107.737 33.5091C108.456 33.0857 108.914 32.5647 109.176 31.9785V22.7954C107.246 19.1807 100.151 19.6692 98.0259 22.1766ZM105.939 30.6434C105.939 30.8388 105.873 31.0667 105.841 31.1644C105.775 31.4249 104.794 31.8483 103.519 31.8808C102.244 31.8483 101.263 31.3924 101.198 31.1644C101.165 31.0667 101.099 30.8388 101.099 30.6434V29.4711C101.099 29.2757 101.165 29.0477 101.198 28.95C101.263 28.6895 102.244 28.2662 103.519 28.2336C104.794 28.2662 105.775 28.7221 105.841 28.95C105.873 29.0477 105.939 29.2757 105.939 29.4711V30.6434Z" fill="#094695"/>
<path d="M96.8488 20.711C96.8161 20.6134 96.7507 20.5157 96.6853 20.4831C96.6199 20.4505 96.5218 20.418 96.4564 20.418H86.2549C86.1569 20.418 86.0915 20.4505 86.0261 20.4831C85.9607 20.5157 85.8953 20.6134 85.8626 20.711C85.8299 20.8087 85.7645 20.9716 85.7645 21.167C85.7318 21.3623 85.7318 21.5903 85.7318 21.8834C85.7318 22.1764 85.7318 22.4044 85.7645 22.5998C85.7972 22.7952 85.8299 22.9254 85.8626 23.0557C85.8953 23.1534 85.9607 23.2511 86.0261 23.2836C86.0915 23.3162 86.1895 23.3488 86.2549 23.3488H89.6881V33.8671C89.6881 33.9648 89.7208 34.0299 89.7535 34.095C89.8189 34.1602 89.8843 34.2253 90.0151 34.2579C90.1459 34.2904 90.3094 34.323 90.5056 34.3556C90.7017 34.3881 90.996 34.3881 91.2903 34.3881C91.6173 34.3881 91.8788 34.3881 92.075 34.3556C92.2712 34.323 92.4674 34.2904 92.5982 34.2579C92.729 34.2253 92.8271 34.1602 92.8598 34.095C92.9252 34.0299 92.9252 33.9648 92.9252 33.8671V23.3162H96.3584C96.4564 23.3162 96.5218 23.2836 96.5872 23.2511C96.6526 23.2185 96.718 23.1208 96.7507 23.0231C96.7834 22.9254 96.8488 22.7626 96.8488 22.5672C96.8815 22.3718 96.8815 22.1439 96.8815 21.8508C96.8815 21.5577 96.8815 21.3298 96.8488 21.1344C96.9142 20.9716 96.8815 20.8413 96.8488 20.711Z" fill="#094695"/>
<path d="M71.8355 21.167C71.8028 20.9716 71.7701 20.8413 71.7374 20.711C71.7047 20.6134 71.6393 20.5157 71.5739 20.4831C71.5086 20.4505 71.4105 20.418 71.3451 20.418H65.0345C62.713 20.418 62.6803 21.1018 62.5169 22.958C62.2226 26.2796 61.8956 29.9268 59.4433 32.0109C59.3779 32.076 59.3452 32.1412 59.3125 32.2389C59.2798 32.3366 59.3125 32.4343 59.3452 32.5645C59.3779 32.6948 59.476 32.8576 59.5741 33.0204C59.6722 33.1832 59.8357 33.4112 60.0646 33.6717C60.2608 33.9322 60.3588 33.9648 60.4896 34.1276C60.6531 34.2904 60.7839 34.3881 60.9147 34.4532C61.0455 34.5184 61.1436 34.5509 61.2417 34.5184C61.3398 34.5184 61.4379 34.4532 61.5032 34.3881C64.6095 32.1086 65.2307 28.0055 65.7212 24.5862C65.7866 24.1629 65.7212 23.3162 66.5386 23.3162H68.6312V33.8671C68.6312 33.9648 68.6639 34.0299 68.6966 34.095C68.762 34.1602 68.8274 34.2253 68.9582 34.2579C69.089 34.2904 69.2525 34.323 69.4486 34.3556C69.6448 34.3881 69.9391 34.3881 70.2334 34.3881C70.5603 34.3881 70.8219 34.3881 71.0181 34.3556C71.2143 34.323 71.4105 34.2904 71.5413 34.2579C71.672 34.2253 71.7701 34.1602 71.8028 34.095C71.8682 34.0299 71.8682 33.9648 71.8682 33.8671V21.8182C71.9009 21.5577 71.8682 21.3298 71.8355 21.167Z" fill="#094695"/>
<path d="M121.11 20.711C121.077 20.6134 121.012 20.5157 120.947 20.4831C120.881 20.4505 120.783 20.418 120.718 20.418H110.516C110.418 20.418 110.353 20.4505 110.287 20.4831C110.222 20.5157 110.157 20.6134 110.124 20.711C110.091 20.8087 110.026 20.9716 110.026 21.167C109.993 21.3623 109.993 21.5903 109.993 21.8834C109.993 22.1764 109.993 22.4044 110.026 22.5998C110.058 22.7952 110.091 22.9254 110.124 23.0557C110.157 23.1534 110.222 23.2511 110.287 23.2836C110.353 23.3162 110.451 23.3488 110.516 23.3488H113.949V33.8671C113.949 33.9648 113.982 34.0299 114.015 34.095C114.08 34.1602 114.146 34.2253 114.276 34.2579C114.407 34.2904 114.571 34.323 114.767 34.3556C114.963 34.3881 115.257 34.3881 115.552 34.3881C115.879 34.3881 116.14 34.3881 116.336 34.3556C116.532 34.323 116.729 34.2904 116.859 34.2579C116.99 34.2253 117.088 34.1602 117.121 34.095C117.186 34.0299 117.186 33.9648 117.186 33.8671V23.3162H120.62C120.718 23.3162 120.783 23.2836 120.848 23.2511C120.914 23.2185 120.979 23.1208 121.012 23.0231C121.045 22.9254 121.11 22.7626 121.11 22.5672C121.143 22.3718 121.143 22.1439 121.143 21.8508C121.143 21.5577 121.143 21.3298 121.11 21.1344C121.208 20.9716 121.175 20.8413 121.11 20.711Z" fill="#094695"/>
<path d="M131.998 26.6378C130.723 25.8888 128.303 25.1398 125.459 25.8562V20.939C125.459 20.8413 125.426 20.7762 125.393 20.711C125.328 20.6459 125.263 20.5808 125.132 20.5482C125.001 20.5157 124.838 20.4831 124.641 20.4505C124.445 20.418 124.151 20.418 123.857 20.418C123.53 20.418 123.268 20.418 123.072 20.4505C122.876 20.4831 122.68 20.5157 122.549 20.5482C122.418 20.5808 122.32 20.6459 122.287 20.711C122.222 20.7762 122.222 20.8413 122.222 20.939V32.0435C122.483 32.6296 122.941 33.1832 123.66 33.574C126.145 35.0394 129.677 35.0068 132.096 33.574C132.816 33.1507 133.273 32.6296 133.535 32.0435V28.1683C133.175 27.5821 132.718 27.0611 131.998 26.6378ZM130.2 30.6758C130.2 30.8712 130.134 31.0991 130.102 31.1968C130.036 31.4573 129.055 31.8807 127.78 31.9132C126.505 31.8807 125.524 31.4248 125.459 31.1968C125.426 31.0991 125.361 30.8712 125.361 30.6758V29.5035C125.361 29.3081 125.426 29.0801 125.459 28.9824C125.524 28.7219 126.505 28.2986 127.78 28.266C129.055 28.2986 130.036 28.7545 130.102 28.9824C130.134 29.0801 130.2 29.3081 130.2 29.5035V30.6758Z" fill="#094695"/>
<path d="M52.9693 22.8925C54.1464 22.8925 55.5851 23.2182 56.7949 24.3905C56.7949 24.3905 57.1545 24.6836 58.2008 23.4787C58.8221 22.7623 58.3643 22.2087 58.3643 22.2087C56.239 19.7012 49.3726 18.8545 47.2473 23.7067V31.1313C49.3726 36.016 56.239 35.1368 58.3643 32.6293C58.3643 32.6293 58.8221 32.0757 58.2008 31.3593C57.1545 30.1218 56.7949 30.4475 56.7949 30.4475C55.5851 31.6198 54.1791 31.9455 52.9693 31.9455C51.6614 31.9455 50.4516 30.8708 50.4516 30.3498V24.4556C50.4843 23.9672 51.6614 22.8925 52.9693 22.8925Z" fill="#094695"/>
<path d="M163.42 20.711C163.355 20.6459 163.289 20.5808 163.159 20.5482C163.028 20.5157 162.864 20.4831 162.668 20.4505C162.472 20.418 162.178 20.418 161.851 20.418C161.524 20.418 161.262 20.418 161.033 20.4505C160.837 20.4831 160.641 20.5157 160.543 20.5482C160.412 20.5808 160.314 20.6459 160.281 20.711C160.216 20.7762 160.216 20.8413 160.216 20.939V31.1968C160.118 31.4573 159.169 31.8807 157.894 31.9132C156.619 31.8807 155.638 31.4573 155.573 31.1968V20.939C155.573 20.8413 155.54 20.7762 155.507 20.711C155.442 20.6459 155.377 20.5808 155.246 20.5482C155.115 20.5157 154.952 20.4831 154.755 20.4505C154.559 20.418 154.265 20.418 153.938 20.418C153.611 20.418 153.349 20.418 153.12 20.4505C152.924 20.4831 152.728 20.5157 152.63 20.5482C152.499 20.5808 152.401 20.6459 152.368 20.711C152.303 20.7762 152.303 20.8413 152.303 20.939V32.0109C152.565 32.5971 153.022 33.1507 153.742 33.574C155.017 34.323 156.488 34.6486 157.927 34.6486H157.96C158.744 34.6486 159.562 34.5509 160.347 34.323V34.8766C160.347 35.3976 157.502 36.4397 154.853 36.1466C154.592 36.114 154.526 36.3094 154.461 36.6351C154.396 36.9933 154.265 37.612 154.134 38.1656C154.069 38.4587 154.069 38.7192 154.33 38.7843C157.011 39.11 161.622 38.6866 163.551 35.9512V20.939C163.485 20.8413 163.453 20.7762 163.42 20.711Z" fill="#F6A70E"/>
<path d="M137.72 31.5551C137.589 31.5225 137.426 31.4574 137.23 31.4574C137.034 31.4248 136.739 31.4248 136.412 31.4248C136.085 31.4248 135.824 31.4248 135.595 31.4574C135.399 31.4899 135.203 31.5225 135.104 31.5551C134.974 31.5876 134.876 31.6528 134.843 31.7179C134.777 31.783 134.777 31.8807 134.777 31.9458V34.0951C134.777 34.1928 134.81 34.2579 134.843 34.323C134.908 34.3882 134.974 34.4533 135.104 34.4859C135.235 34.5184 135.399 34.551 135.595 34.5836C135.791 34.6161 136.085 34.6161 136.412 34.6161C136.739 34.6161 137.001 34.6161 137.23 34.5836C137.426 34.551 137.622 34.5184 137.72 34.4859C137.851 34.4533 137.949 34.3882 137.982 34.323C138.047 34.2579 138.047 34.1928 138.047 34.0951V31.9458C138.047 31.8481 138.014 31.783 137.982 31.7179C137.949 31.6528 137.851 31.5876 137.72 31.5551Z" fill="#F6A70E"/>
<path d="M149.23 21.2646C146.745 19.7992 143.213 19.8318 140.794 21.2646C140.074 21.6879 139.617 22.209 139.355 22.7951V38.3284C139.355 38.5889 139.617 38.7517 140.205 38.8168C140.401 38.8494 140.696 38.8494 140.99 38.8494C141.317 38.8494 141.578 38.8494 141.775 38.8168C142.396 38.7517 142.527 38.5238 142.527 38.3284V34.323C144.685 34.9417 147.235 34.7137 149.164 33.574C149.884 33.1506 150.341 32.6296 150.603 32.0434V22.8277C150.407 22.209 149.949 21.6879 149.23 21.2646ZM147.431 30.1221V30.6757C147.431 30.8711 147.366 31.0991 147.333 31.1968C147.268 31.4573 146.287 31.8806 145.012 31.9132C143.736 31.8806 142.756 31.4247 142.69 31.1968C142.657 31.0991 142.592 30.8711 142.592 30.6757V30.1547V24.1303C142.592 23.9349 142.657 23.7069 142.69 23.6092C142.756 23.3487 143.736 22.9254 145.012 22.8928C146.287 22.9254 147.268 23.3813 147.333 23.6092C147.366 23.7069 147.431 23.9349 147.431 24.1303V30.1221Z" fill="#F6A70E"/>
<path d="M50.9748 45.4599C50.7459 45.5576 50.2881 45.7204 49.6669 45.7204C48.2936 45.7204 47.4108 44.776 47.4108 43.4083C47.4108 42.008 48.359 40.9985 49.8631 40.9985C50.3535 40.9985 50.7786 41.1288 51.0075 41.2265L50.8113 41.8778C50.6151 41.7801 50.2881 41.6498 49.8631 41.6498C48.8168 41.6498 48.2609 42.4314 48.2609 43.3757C48.2609 44.4178 48.9476 45.0691 49.8304 45.0691C50.2881 45.0691 50.6151 44.9388 50.844 44.8411L50.9748 45.4599Z" fill="#80898C"/>
<path d="M52.3481 43.506C52.3808 44.6132 53.0674 45.0691 53.9175 45.0691C54.5061 45.0691 54.8657 44.9714 55.1927 44.8411L55.3235 45.4273C55.0292 45.5576 54.5388 45.7204 53.8194 45.7204C52.4135 45.7204 51.5633 44.8086 51.5633 43.4409C51.5633 42.0732 52.3808 40.9985 53.6886 40.9985C55.1927 40.9985 55.5851 42.3011 55.5851 43.1478C55.5851 43.3106 55.5524 43.4409 55.5524 43.5386H52.3481V43.506ZM54.7676 42.9198C54.7676 42.3988 54.5388 41.5847 53.6232 41.5847C52.7731 41.5847 52.4135 42.3662 52.3481 42.9198H54.7676Z" fill="#80898C"/>
<path d="M56.5987 42.5615C56.5987 41.9753 56.566 41.5194 56.566 41.0635H57.318L57.3507 41.8451H57.3834C57.7104 41.2915 58.2662 40.9658 59.0183 40.9658C60.13 40.9658 60.9474 41.9102 60.9474 43.2779C60.9474 44.9061 59.9338 45.7202 58.8875 45.7202C58.2989 45.7202 57.7431 45.4597 57.4815 45.0038H57.4488V47.4787H56.6314V42.5615H56.5987ZM57.4161 43.7664C57.4161 43.8966 57.4488 43.9943 57.4488 44.092C57.6123 44.6782 58.1028 45.0689 58.6913 45.0689C59.5741 45.0689 60.0646 44.3525 60.0646 43.3105C60.0646 42.3987 59.5741 41.6171 58.724 41.6171C58.1681 41.6171 57.645 42.0079 57.4815 42.6266C57.4488 42.7243 57.4161 42.8546 57.4161 42.9522V43.7664Z" fill="#80898C"/>
<path d="M61.961 41.1289C62.288 41.0638 62.8765 41.0312 63.3997 41.0312C64.1517 41.0312 65.4269 41.1615 65.4269 42.171C65.4269 42.7246 65.0018 43.0828 64.4787 43.1805V43.2131C65.1326 43.3108 65.6231 43.669 65.6231 44.3528C65.6231 45.5577 64.119 45.688 63.2362 45.688C62.713 45.688 62.1899 45.6554 61.961 45.6228V41.1289ZM62.7457 45.0692C62.9746 45.1018 63.1381 45.1018 63.3997 45.1018C63.9555 45.1018 64.773 44.9716 64.773 44.3203C64.773 43.669 64.119 43.5387 63.3343 43.5387H62.7457V45.0692ZM62.7457 42.9851H63.367C63.9882 42.9851 64.6095 42.8223 64.6095 42.2687C64.6095 41.8128 64.2171 41.6174 63.3997 41.6174C63.1381 41.6174 62.9419 41.65 62.7457 41.65V42.9851Z" fill="#80898C"/>
<path d="M67.4541 41.0635V42.9848C67.4541 43.7012 67.4541 44.1571 67.4214 44.8084H67.4541C67.7157 44.2548 67.8792 43.9291 68.1735 43.4081L69.6121 41.0635H70.593V45.5899H69.8083V43.6686C69.8083 42.9197 69.841 42.5289 69.8737 41.8125H69.841C69.5467 42.3986 69.3506 42.7568 69.089 43.2127C68.6639 43.9291 68.1408 44.7758 67.6503 45.5899H66.7021V41.0635H67.4541Z" fill="#80898C"/>
<path d="M75.1379 45.4599C74.9091 45.5576 74.4513 45.7204 73.8301 45.7204C72.4568 45.7204 71.574 44.776 71.574 43.4083C71.574 42.008 72.5222 40.9985 74.0262 40.9985C74.5167 40.9985 74.9418 41.1288 75.1706 41.2265L74.9745 41.8778C74.7783 41.7801 74.4513 41.6498 74.0262 41.6498C72.9799 41.6498 72.4241 42.4314 72.4241 43.3757C72.4241 44.4178 73.1107 45.0691 73.9935 45.0691C74.4513 45.0691 74.7783 44.9388 75.0071 44.8411L75.1379 45.4599Z" fill="#80898C"/>
<path d="M81.5466 39.5331C81.3177 39.6308 80.8926 39.6959 80.5984 39.7285C79.879 39.8262 79.3232 40.0867 78.9635 40.5752C78.6692 40.9985 78.5057 41.5847 78.473 42.0732H78.5057C78.8 41.4219 79.454 41.0637 80.0752 41.0637C81.1869 41.0637 82.0043 41.8452 82.0043 43.3106C82.0043 44.8086 81.2196 45.7204 79.879 45.7204C78.2769 45.7204 77.7537 44.1898 77.7537 42.6919C77.7537 41.6498 77.9826 40.8031 78.473 40.1844C78.9308 39.5657 79.552 39.2726 80.4349 39.1098C80.7945 39.0447 81.2523 38.9795 81.5793 38.8818L81.5466 39.5331ZM79.9444 41.6824C79.454 41.6824 79.0943 41.9429 78.9308 42.3011C78.7673 42.5616 78.7019 42.8873 78.7019 43.278C78.7019 44.027 79.0616 45.1016 79.9771 45.1016C80.8926 45.1016 81.2196 44.2224 81.2196 43.3757C81.1869 42.6267 80.9253 41.6824 79.9444 41.6824Z" fill="#80898C"/>
<path d="M83.0833 42.5615C83.0833 41.9753 83.0506 41.5194 83.0506 41.0635H83.8027L83.8354 41.8451H83.8681C84.195 41.2915 84.7509 40.9658 85.5029 40.9658C86.6146 40.9658 87.432 41.9102 87.432 43.2779C87.432 44.9061 86.4184 45.7202 85.3721 45.7202C84.7836 45.7202 84.2277 45.4597 83.9661 45.0038H83.9335V47.4787H83.116V42.5615H83.0833ZM83.9008 43.7664C83.9008 43.8966 83.9335 43.9943 83.9335 44.092C84.0969 44.6782 84.5874 45.0689 85.1759 45.0689C86.0588 45.0689 86.5492 44.3525 86.5492 43.3105C86.5492 42.3987 86.0588 41.6171 85.2086 41.6171C84.6528 41.6171 84.1296 42.0079 83.9661 42.6266C83.9334 42.7243 83.9008 42.8546 83.9008 42.9522V43.7664Z" fill="#80898C"/>
<path d="M92.5655 43.3105C92.5655 45.0038 91.3884 45.7202 90.3094 45.7202C89.0669 45.7202 88.1187 44.8084 88.1187 43.3756C88.1187 41.8451 89.1323 40.9658 90.3748 40.9658C91.6827 40.9658 92.5655 41.9102 92.5655 43.3105ZM88.9361 43.343C88.9361 44.3525 89.5247 45.1015 90.3094 45.1015C91.0941 45.1015 91.6827 44.3525 91.6827 43.343C91.6827 42.5615 91.2903 41.5845 90.3094 41.5845C89.3285 41.5845 88.9361 42.4964 88.9361 43.343Z" fill="#80898C"/>
<path d="M94.4292 41.0635V42.8871H96.5872V41.0635H97.4047V45.5899H96.5872V43.5384H94.4292V45.5899H93.6118V41.0635H94.4292Z" fill="#80898C"/>
<path d="M99.53 41.0635V42.9848C99.53 43.7012 99.53 44.1571 99.4973 44.8084H99.53C99.7915 44.2548 99.955 43.9291 100.249 43.4081L101.655 41.0635H102.636V45.5899H101.851V43.6686C101.851 42.9197 101.884 42.5289 101.917 41.8125H101.884C101.59 42.3986 101.394 42.7568 101.132 43.2127C100.707 43.9291 100.184 44.7758 99.6935 45.5899H98.7452V41.0635H99.53Z" fill="#80898C"/>
<path d="M103.977 42.5615C103.977 41.9753 103.944 41.5194 103.944 41.0635H104.696L104.729 41.8451H104.762C105.088 41.2915 105.644 40.9658 106.396 40.9658C107.508 40.9658 108.325 41.9102 108.325 43.2779C108.325 44.9061 107.312 45.7202 106.266 45.7202C105.677 45.7202 105.121 45.4597 104.86 45.0038H104.827V47.4787H103.977V42.5615ZM104.794 43.7664C104.794 43.8966 104.827 43.9943 104.827 44.092C104.99 44.6782 105.481 45.0689 106.069 45.0689C106.952 45.0689 107.443 44.3525 107.443 43.3105C107.443 42.3987 106.952 41.6171 106.102 41.6171C105.546 41.6171 105.023 42.0079 104.86 42.6266C104.827 42.7243 104.794 42.8546 104.794 42.9522V43.7664Z" fill="#80898C"/>
<path d="M113.459 43.3105C113.459 45.0038 112.282 45.7202 111.203 45.7202C109.96 45.7202 109.012 44.8084 109.012 43.3756C109.012 41.8451 110.026 40.9658 111.268 40.9658C112.576 40.9658 113.459 41.9102 113.459 43.3105ZM109.83 43.343C109.83 44.3525 110.418 45.1015 111.203 45.1015C111.988 45.1015 112.576 44.3525 112.576 43.343C112.576 42.5615 112.184 41.5845 111.203 41.5845C110.222 41.5845 109.83 42.4964 109.83 43.343Z" fill="#80898C"/>
<path d="M114.473 41.1289C114.8 41.0638 115.388 41.0312 115.911 41.0312C116.663 41.0312 117.938 41.1615 117.938 42.171C117.938 42.7246 117.513 43.0828 116.99 43.1805V43.2131C117.644 43.3108 118.135 43.669 118.135 44.3528C118.135 45.5577 116.631 45.688 115.748 45.688C115.225 45.688 114.701 45.6554 114.473 45.6228V41.1289ZM115.257 45.0692C115.486 45.1018 115.65 45.1018 115.911 45.1018C116.467 45.1018 117.284 44.9716 117.284 44.3203C117.284 43.669 116.631 43.5387 115.846 43.5387H115.257V45.0692ZM115.29 42.9851H115.911C116.532 42.9851 117.154 42.8223 117.154 42.2687C117.154 41.8128 116.761 41.6174 115.944 41.6174C115.682 41.6174 115.486 41.65 115.29 41.65V42.9851Z" fill="#80898C"/>
<path d="M121.731 45.6225L121.666 45.0364H121.633C121.372 45.3946 120.881 45.7202 120.227 45.7202C119.312 45.7202 118.821 45.0689 118.821 44.4176C118.821 43.3105 119.802 42.7243 121.568 42.7243V42.6266C121.568 42.2358 121.47 41.5845 120.522 41.5845C120.096 41.5845 119.639 41.7148 119.344 41.9102L119.148 41.3566C119.541 41.1286 120.064 40.9658 120.652 40.9658C122.058 40.9658 122.385 41.9102 122.385 42.822V44.5153C122.385 44.9061 122.418 45.2969 122.451 45.59H121.731V45.6225ZM121.601 43.3105C120.685 43.2779 119.671 43.4407 119.671 44.32C119.671 44.841 120.031 45.1015 120.456 45.1015C121.045 45.1015 121.437 44.7107 121.568 44.3525C121.601 44.2548 121.601 44.1897 121.601 44.092V43.3105Z" fill="#80898C"/>
<path d="M124.543 41.0635V42.8871H126.701V41.0635H127.519V45.5899H126.701V43.5384H124.543V45.5899H123.726V41.0635H124.543Z" fill="#80898C"/>
<path d="M129.644 41.0635V42.9848C129.644 43.7012 129.644 44.1571 129.611 44.8084H129.644C129.906 44.2548 130.069 43.9291 130.363 43.4081L131.802 41.0635H132.783V45.5899H131.998V43.6686C131.998 42.9197 132.031 42.5289 132.064 41.8125H132.031C131.737 42.3986 131.54 42.7568 131.279 43.2127C130.854 43.9291 130.331 44.7758 129.873 45.5899H128.925V41.0635H129.644Z" fill="#80898C"/>
<path d="M137.459 45.6228H136.641V43.7341H136.02C135.66 43.7341 135.431 43.8318 135.268 43.9946C134.941 44.2551 134.81 44.8413 134.614 45.2646C134.549 45.3949 134.483 45.5251 134.418 45.6554H133.535C133.633 45.4926 133.731 45.3298 133.829 45.1344C134.025 44.6785 134.156 44.0923 134.549 43.7667C134.679 43.6364 134.876 43.5387 135.072 43.5062V43.4736C134.483 43.4085 133.862 43.0502 133.862 42.3338C133.862 41.8779 134.123 41.5523 134.45 41.3569C134.843 41.1289 135.399 41.0312 135.987 41.0312C136.543 41.0312 137.066 41.0638 137.459 41.1289V45.6228ZM136.641 41.6174C136.445 41.5848 136.249 41.5848 135.955 41.5848C135.399 41.5848 134.712 41.7477 134.712 42.3664C134.712 42.9526 135.431 43.1479 135.922 43.1479C136.249 43.1479 136.445 43.1479 136.641 43.1479V41.6174Z" fill="#80898C"/>
<path d="M143.9 41.0635V41.7148H142.494V45.5899H141.677V41.7148H140.238V41.0635H143.9Z" fill="#80898C"/>
<path d="M145.11 41.0635L146.123 43.7338C146.221 44.0268 146.352 44.3851 146.418 44.6781H146.45C146.548 44.4176 146.614 44.0594 146.745 43.7338L147.66 41.0635H148.543L147.3 44.2874C146.712 45.8505 146.287 46.632 145.731 47.1205C145.339 47.4787 144.914 47.6089 144.717 47.6415L144.521 46.9576C144.717 46.8925 145.012 46.7623 145.241 46.5669C145.469 46.404 145.764 46.0784 145.927 45.6551C145.96 45.5574 145.993 45.4922 145.993 45.4597C145.993 45.4271 145.96 45.362 145.927 45.2317L144.227 41.0635H145.11Z" fill="#80898C"/>
<path d="M149.262 42.5615C149.262 41.9753 149.23 41.5194 149.23 41.0635H149.982L150.014 41.8451H150.047C150.374 41.2915 150.93 40.9658 151.682 40.9658C152.794 40.9658 153.611 41.9102 153.611 43.2779C153.611 44.9061 152.597 45.7202 151.551 45.7202C150.963 45.7202 150.407 45.4597 150.145 45.0038H150.08V47.4787H149.262V42.5615ZM150.08 43.7664C150.08 43.8966 150.112 43.9943 150.112 44.092C150.276 44.6782 150.766 45.0689 151.355 45.0689C152.238 45.0689 152.728 44.3525 152.728 43.3105C152.728 42.3987 152.238 41.6171 151.388 41.6171C150.832 41.6171 150.309 42.0079 150.145 42.6266C150.112 42.7243 150.08 42.8546 150.08 42.9522V43.7664Z" fill="#80898C"/>
<path d="M158.744 43.3105C158.744 45.0038 157.567 45.7202 156.488 45.7202C155.246 45.7202 154.298 44.8084 154.298 43.3756C154.298 41.8451 155.311 40.9658 156.554 40.9658C157.862 40.9658 158.744 41.9102 158.744 43.3105ZM155.115 43.343C155.115 44.3525 155.704 45.1015 156.488 45.1015C157.273 45.1015 157.862 44.3525 157.862 43.343C157.862 42.5615 157.469 41.5845 156.488 41.5845C155.507 41.5845 155.115 42.4964 155.115 43.343Z" fill="#80898C"/>
<path d="M159.758 41.1289C160.085 41.0638 160.674 41.0312 161.197 41.0312C161.949 41.0312 163.224 41.1615 163.224 42.171C163.224 42.7246 162.799 43.0828 162.276 43.1805V43.2131C162.93 43.3108 163.42 43.669 163.42 44.3528C163.42 45.5577 161.916 45.688 161.033 45.688C160.51 45.688 159.987 45.6554 159.758 45.6228V41.1289ZM160.543 45.0692C160.772 45.1018 160.935 45.1018 161.197 45.1018C161.753 45.1018 162.57 44.9716 162.57 44.3203C162.57 43.669 161.916 43.5387 161.131 43.5387H160.543V45.0692ZM160.543 42.9851H161.164C161.785 42.9851 162.406 42.8223 162.406 42.2687C162.406 41.8128 162.014 41.6174 161.197 41.6174C160.935 41.6174 160.739 41.65 160.543 41.65V42.9851Z" fill="#80898C"/>
</svg>
